<?xml version="1.0" encoding="UTF-8"?>
<svg id="Layer_1" data-name="Layer 1" xmlns="http://www.w3.org/2000/svg" viewBox="0 0 60 60">
  <defs>
    <style>
      .cls-1 {
        fill: #eaf1f3;
      }

      .cls-2 {
        fill: #e8f0f4;
      }

      .cls-3 {
        fill: #032d53;
      }

      .cls-4 {
        fill: #012c53;
      }

      .cls-5 {
        fill: #123152;
      }

      .cls-6 {
        fill: #fefefe;
      }
    </style>
  </defs>
  <path class="cls-4" d="M0,60V0h60v60H0ZM29.03,14.1l-.07.38c-.39.29-.58-.27-.94-.63-.33-.24-.86,1.18-.48,1.36.22.1.65.1.65.3,0,.12.05.24-.13.36-.1.06-.28-.16-.52-.17-.69-.03-1.02.5-1.17.88-.75,1.88,1.2,2.87,3.06,3.67l-1.76.61c-.82.28-1.63-.73-2.42-.39.62.65-.1.97.35,1.18,1.12.51,3.72.3,4.73-1.01.64.19.98,1.18.77,1.81-.12.37-.6.3-.82.31-.2,0-.43.01-.64.13-.19.11-.06.48-.17.59-.23.23-.9.43-1.23.3-.98-.39-2.28.07-2.65,1.08-.1.1-.32.26-.46.3-1.04.32-1.99.97-3.14.55,0-.42.09-.77.17-1.08l1.98-.25c-.06-.84-.53-1.05-.77-1.51-.16-.31-.24-.67-.34-1.01.2-.62.59-1.17.47-1.84s-.66-1.25-1.32-1.66c-3.72-2.31-4.53,3.56-6.41.02-.76.54-.88,1.52-.36,2.25-.14,1.04-1.19,1.35-.44,2.18l.27.3c-.1.6.55,1.34.23,2-.56,1.16-3.16.09-3.17,1.57-.09.11-.19.21-.3.3-.84-.2-1.29,2.16-1.11,2.71.11.32.36.66.83.59.1.19.23.52.26.73-.29.79.52,1.11.89,1.62.77,1.04,1.89.7,3.52.78-1.46.93-2.3,1.78-2.26,3.6-.89-.62-.09-1.38-.66-2.03-3.11,4.21,3.11,6.56.31,9.96,1.56.26,2.17-.98,2.4-2.38.73.25,1.14.9,1.24,1.55.05.32.1.64.28.9-.04.31,0,.85-.1,1.16-.16.53.11,1.22.59,1.52-.29,1.02-.53,2.28.78,2.94,0-.64.35-1.2.65-1.85.23-.5-.22-1.08.41-1.47.18.81.62,1.66,1.33,1.76.52.07,1.84.38,1.71-.46-.28-.38-.8-.54-.87-.87-.09-.48-.19-1.25.27-1.51.66-.37.79.34,1.03.73.44.71,1.31.78,1.73,1.38,1.12,1.58,2.95,2.68,4.66,3.77,1.47-.78,2.48-1.75,3.66-2.61,2.23-.74,3.11-3.5,3.82-3.43.14.42,1.31.67.54,1.51-.28.3-.82.53-1.17.99.5.83,1.23.66,1.92.42s.9-1.01.92-1.96c.76.37.35,1.1.55,1.69.21.62.69,1.07.68,1.86.65-.28.93-.82,1-1.3.12-.81-.18-1.35-.87-2.03,1.03-.36,1.28-1.11,1.25-1.99,0-.29.38-.71.62-.81.52-.22,1.09.42,1.73.72.16.07.25-.19.41-.22.23-.05.6,0,.83.03.15.02.29.37.52.29.24-.08.05-.42.32-.61.34-.25-.44-.22-.64-.41-.82-3.08,1.21-3.28.14-3.51.23-.26.19-1.04.63-1.15.89-.02.4-.47.84-2.04.07-.23-.2-.36-.47-.44-.02-.36-.02-.78-.14-1.14.78.03.78-.34,0-.28l-.58-.5c-.41-.35-.37.38-.68.83-.43-.65-.73-1.34-1.09-2.05.62-.67,1.37-.58,2.16-1.13-.7-.51-1.53.22-2.28-.45,1.41-.51,2.69-.66,3.33-1.74.59-1,.69-2.44-.08-3.46s-4.18-.56-3.16-1.69c.15-.17.63-.6.26-.84-.43-.27-1.51.04-1.65-.74-.16-.84,1.72.42,2.18-.3.91-1.44-1.52-1.12-1.09-2.61.46-.32.91-1.5.79-2.04-.09-.41-.75-.65-.92-1.03-.06.76-.3,1.19-.8,1.58,0,2.49-1.07-2.15-3.88-2.09-.91.02-2.07.38-2.34,1.32-.38,1.3-.41,2.43.31,3.47.04.55-.75,1.49-1.34,1.65-1.15.32-2.74-.25-3.16-1.27.48-.36,1.45-.12,1.26-.73.24.11.58.02.83.04.04.07.05.52.18.53.66.06.88-1.59.36-2.34-.2-.3-.61-.66-1.11-.35-.25.1-.65-.18-.85-.29-.09-.29-.5-.73-.22-1.06l1.2.05c.91-3.02,2.93-1.94,3.26-5.87.09-1.09-.83-2.29-.96-3.43-.05-.41-1.07-.77-1.38-.58-.68.42-1.16,1.42-1.88,1.7-.03-.09-.12-.25-.23-.24-.18.01-.29.27-.66.42-.11-.76.29-1.56-.37-2.17-.31.41-.07.97-.53,1.33-.34-.79-.14-1.55-1.18-1.76.38,1.38-.08,2.6-.59,3.9-1.34-1.42-4.48-.15-4.5-.09-.09.24-.36.92-.1,1.29.8,1.14,2.8-2.66,3.58-.63.24.63.02,1.23-.07,1.75Z"/>
  <path class="cls-5" d="M47.02,36.51v-.28c.78-.06.78.3,0,.28Z"/>
  <g>
    <path class="cls-2" d="M44.33,21.54c-1.32.62-2.61.21-3.47-1.01-.38-.54-1.11-.74-1.04-1.77-1.71,1.77.81,3.08,1.74,4.54,1.15-1.04,2.73-1.03,3.59.31-5.06-.12-1.13,4.94-6.2,5.69.8,2.73,4.26,2.89,6.33,2.13.93-.34,1.29-1.15,1.23-2.18.56.05.45.58.9.68.3-1.07-.54-1.46-1.33-1.46-.88,0-.96.79-1.19,1.65-.08.29-.77.07-.84-.28-.04-.22-.09-.62-.52-.89-.27.67.17,1.45-.57,1.67-.37.11-1.02.25-1.47-.15.76-.69.96-1.55,1.54-2.2,1.36-1.54-.32-1.86.93-2.49.18-.09.45.07.67.24-1.02,1.13,2.38.67,3.16,1.69s.67,2.46.08,3.46c-.63,1.08-1.92,1.23-3.33,1.74.75.67,1.58-.06,2.28.45-.79.55-1.54.46-2.16,1.13.36.72.66,1.4,1.09,2.05.31-.45.26-1.19.68-.83l.58.5v.28c.12.36.12.78.14,1.14-.02.84-.13,1.67-.37,2.48-.44.12-.4.9-.63,1.15-1.08,1.21-1.17,2.85-.33,4.24-.23-.02-.6-.08-.83-.03-.71-.57-1.18-1.33-1.4-2.31-.81.21-.95.74-1.05,1.46-.6-.2-.91-.85-.68-1.34l.58-1.24c-1.73.21-3.1,1.14-3.87,2.35,2.08-.33.14,1.3,1.38,2.04.25.15.9.23.99-.07l.3-1.03c.32-.2.71.31.98.45.03.88-.22,1.63-1.25,1.99.69.68,1,1.22.87,2.03-.07.48-.35,1.02-1,1.3,0-.79-.47-1.24-.68-1.86-.2-.59.21-1.32-.55-1.69-.02.96-.21,1.72-.92,1.96s-1.42.41-1.92-.42c.34-.45.89-.68,1.17-.99.77-.84-.4-1.1-.54-1.51-.26-.77-.67-1.61-.21-2.31v-.27c.68-.13.43-1.18.86-1.52,1.36-1.09,2.89-1.75,4.45-2.61-.66-.58-1.56-.39-2.47-.06-.03-.82.57-1.13,1.14-1.5.65-.42.71-1.52,1.6-1.54.22.32.16.91.3,1.19.16.34.69.45,1.11.22.26-.14.51-.52.37-1.15-.19-.84-1.41-2.29-2.33-1.91-.69.28-.92,1.7-2.11,1.27.65-.69.88-1.44.62-2.37-.53-1.96-1.92-.81-2.39-3.13-.29.53-.33,1.27-1.35,1.52-.05-3.49-.65-.62-.69-4.35-.4,1.05-1.22,1.09-2.39,1.87,1.41.84,2.03,1.77,1.49,3.32l3.79.22c.35,2.8-.47,3.84-.13,6.28.04.28-.37.41-.51.33-.31-.16-.12-1.16-.59-1.18-.18,0-.38.37-.52.48-.59-.85-1.43-1.33-1.6-2.56-.26.59-.02,1.01-.29,1.14-.33.16-.6-.79-.58-.79-1.19-.13-2.38-.11-3.48-.07.03-.85-.35-1.77.37-2.83,2.02-.16,4.21-.33,6.38-.11.25.9.23,1.74.09,2.57-.32.2-.72-.24-1.16-.16.64.34.69.96,1.38,1.6.33-1.56.1-2.87.13-4.4l-6.87-.08c.33-.43.7-.31.82-.52.13-.23,0-.54.07-.91.12-.54.84-.34,1.29-.24.37.09.41.55.62,1.17.49-.42.4-1.09.27-1.49-.24-.75-1.07-.84-1.77-.57-1.82.7-1.45,1.86-3.72,3.15l1.69.09c.15,1.11-.18,1.99-1.19,2.49.83.4,1.1.68,1.17,1.22.1.77-.85.54-1.16.98l-4.28,6.12c-.46-.35-.06-.72-.11-1.01,1.15-1.29,3.67-5.43,3.67-7.42,0-.76-.22-2.98-1.57-2.75-.06-.19-.14-.39-.3-.53-.31-.26-.65-.63-.55-1.04.08-.31.32-1.1.74-.9.63.3.57,1.16.89,1.74.42-.26,1.05-.71,1.02-1.27-1.49.8-.65-2.46-5.37-2.81.07.51.52.42.85.76-.66.6-.76,1.47-1.08,2.38-.98-.23-.92-1.07-1.05-1.95-.63.34-.37,1.07-.86,1.52-1.01.23-1.91.7-2.4,1.37-.62.85-.5,1.83-.2,2.82-.92.52-1.01-.7-1.59-.96-.99-.43-2.37,1.13-2.4,2.13-.02.71.41,1.01.77,1.03,1.12.06.72-1.39.97-1.53.84-.46.86,1.38,1.48,1.6.69.24,1.37.48,1.22,1.37-.78-.23-1.57-.51-2.43.13,1.25.72,4.54,1.96,4.9,3.19-.08.17.22.43.27.58.05.18.04.54.32.6,0,.08.02.17.04.24.1.39.27.71.3,1.31-.9-.19-1.16.4-1.36,1.12-.18.63-.26,1.2.09,1.67.3.4.75.56,1.24.49.14.84-1.19.53-1.71.46-.71-.1-1.15-.94-1.33-1.76-.64.38-.18.96-.41,1.47-.3.64-.64,1.2-.65,1.85-1.31-.66-1.08-1.92-.78-2.94.17-.09.37-.12.61-.41-.53-.26-.95-.61-1.2-1.11.09-.31.06-.85.1-1.16.26-.05.74-.53.85-.04s.2.93.59,1.04c.36.1.76-.04.93-.26.42-.56-.08-3.01.61-1.52.04.09.25.33.57.44.95-1.53-4.21-3.7-5.57-3.97.33.94,1.26.85,1.87,1.39.59.53.54,1.71-.13,2.03-.11-.65-.51-1.29-1.24-1.55-.23,1.4-.84,2.64-2.4,2.38,2.8-3.4-3.41-5.75-.31-9.96.57.65-.23,1.4.66,2.03-.03-1.83.8-2.67,2.26-3.6-1.64-.09-2.75.26-3.52-.78.51-.02,1.05.26,1.83-.1l-2.72-1.51c-.03-.21-.16-.54-.26-.73-.58-1.08-.18-2.22.28-3.3.11-.09.21-.19.3-.3,2.06-1.03,3.74.07,3.65-2.2.48-.02.86.43,1.03.74.26.47-.21,1.01-.17,1.43-.02-.22,1.83,3.08,2.4,3.15-.54.31-1.17.18-1.85.06-.41-.07-.4-.73-.84-1.23-.55.72-.99,1.28-1.88.94.28-.33.68-.75.44-1.22-.29-.58-.98-.77-1.62-.6-.35.1-.81.35-.97.87.88.09.71,1.1,1.15,1.54,2.38,2.45,7.36.77,8.57-1.89-5.64-.67-1.74-5.76-6.97-5.2l-.27-.3c1.31-.72,2.75-1.11,4.27-.25,1.62-1.13,2.55-3.51,3.54-1.88,0-.89-.69-1.37-1.35-1.44-1.6-.17-2.98,3.02-4.48.85-.29.33-.03.63-.21,1.21-.5-.26-.87-.5-1.31-.67-.53-.73-.41-1.71.36-2.25,1.89,3.54,2.69-2.33,6.41-.02.65.41,1.19.97,1.32,1.66s-.27,1.22-.47,1.84c-.94.61-2.56.17-3.27,1.9-.34.82-.23,1.86.24,2.58.08-1.37.01-2.28.81-2.97.67-.57,1.67-.62,2.57-.5.24.46.71.67.77,1.51l-1.98.25c-.77.1-.73.91-.63,1.35.27,1.16,2.54,1.69,3.05,1.76.24.03.49-.45.7-.35.18.09.34.44.57.45l3.36.07c-.87.71-1.84.24-2.86.75,1.01.19,2.33.42,3.27-.19.19-.52-.16-1.31-.24-1.81-1.11.31-2.09.69-3.16.36.12-.73.9-.89.84-1.45,1.69-.37,4.85-1.3,6.11.66.32.5-.43.79-.78.98-.48.25-.75-.1-1.31-.56-.22.96.09,1.78.58,2.51.2-.78.31-1.09.76-1.4.68-.48.72.15,1.25.52.41.28,1.08-.48,1.1-.86.01-.49-.26-1-.92-1.54.6-.24,1.55-.41,2.21-.19.61.2.78,1.06,1.33,1.37.73.41,1.66.39,2.03-.36.29-.58.27-1.46-.32-2.04-.53-.51-1.44-.39-2.15.27-.08-1.24.62-1.85,1.58-1.93,1.07-.08,1.71.63,2.37,1.7.19-3.31-3.31-1.03-3.53-4.48-.14-2.15,2.32-2.08,2.15-2.78,2.8-.06,3.88,4.57,3.88,2.09.5-.39.74-.82.8-1.58.17.38.83.63.92,1.03.12.54-.33,1.72-.79,2.04ZM43.63,33.93c0,.28.25.52.35.46.15-.1.18-.33.12-.44-.06-.11-.48-.31-.47-.02Z"/>
    <path class="cls-2" d="M27.07,26.09c-1.19.26-1.6.63-1.87.32-.2-.23-.12-.52-.05-.74.14-.04.36-.2.46-.3.48.27,1.26.13,1.46.72Z"/>
    <path class="cls-5" d="M12.33,27.22c.01-1.49,2.61-.42,3.17-1.57.32-.66-.33-1.41-.23-2,5.23-.55,1.33,4.53,6.97,5.2-1.21,2.65-6.19,4.33-8.57,1.89-.44-.45-.27-1.46-1.15-1.54.17-.52.62-.78.97-.87.63-.17,1.33.02,1.62.6.24.47-.16.89-.44,1.22.89.33,1.33-.22,1.88-.94.44.5.43,1.16.84,1.23.68.12,1.31.25,1.85-.06-.56-.07-2.42-3.38-2.4-3.15-.04-.43.42-.96.17-1.43-.17-.32-.55-.76-1.03-.74.09,2.27-1.59,1.17-3.65,2.2Z"/>
    <path class="cls-5" d="M44.33,21.54c-.43,1.49,2,1.17,1.09,2.61-.45.72-2.33-.53-2.18.3.15.78,1.23.47,1.65.74.37.24-.11.67-.26.84-.22-.18-.49-.34-.67-.24-1.24.64.44.95-.93,2.49-.57.65-.77,1.51-1.54,2.2.45.4,1.1.26,1.47.15.74-.22.3-1,.57-1.67.43.27.47.67.52.89.07.34.76.57.84.28.23-.86.31-1.65,1.19-1.65.79,0,1.64.39,1.33,1.46-.45-.11-.34-.63-.9-.68.06,1.03-.3,1.84-1.23,2.18-2.08.75-5.53.6-6.33-2.13,5.07-.75,1.14-5.82,6.2-5.69-.86-1.34-2.45-1.35-3.59-.31-.93-1.46-3.45-2.77-1.74-4.54-.07,1.02.66,1.23,1.04,1.77.85,1.22,2.15,1.63,3.47,1.01Z"/>
    <path class="cls-5" d="M45,45.49c-.15.03-.25.29-.41.22-.65-.3-1.21-.94-1.73-.72-.24.1-.63.52-.62.81-.26-.14-.66-.65-.98-.45l-.3,1.03c-.09.3-.74.22-.99.07-1.24-.74.7-2.37-1.38-2.04.77-1.2,2.14-2.13,3.87-2.35l-.58,1.24c-.23.48.08,1.14.68,1.34.1-.72.24-1.25,1.05-1.46.22.98.69,1.74,1.4,2.31Z"/>
    <path class="cls-5" d="M14.99,23.33c-.74-.83.31-1.14.44-2.18.44.17.81.42,1.31.67.18-.59-.07-.89.21-1.21,1.5,2.17,2.88-1.02,4.48-.85.67.07,1.36.55,1.35,1.44-.98-1.63-1.92.74-3.54,1.88-1.52-.86-2.96-.47-4.27.25Z"/>
    <path class="cls-5" d="M17.73,45.53c-.18-.26-.23-.58-.28-.9.67-.32.72-1.5.13-2.03-.61-.54-1.54-.45-1.87-1.39,1.36.27,6.53,2.44,5.57,3.97-.31-.11-.53-.34-.57-.44-.7-1.49-.19.96-.61,1.52-.17.23-.57.37-.93.26-.39-.11-.47-.52-.59-1.04s-.59-.01-.85.04Z"/>
    <path class="cls-5" d="M23.39,23.39c-.9-.12-1.9-.07-2.57.5-.79.68-.73,1.6-.81,2.97-.47-.72-.57-1.75-.24-2.58.71-1.73,2.33-1.28,3.27-1.9.1.34.18.69.34,1.01Z"/>
    <path class="cls-5" d="M12.9,33.15c-.38-.51-1.18-.82-.89-1.62l2.72,1.51c-.78.36-1.33.08-1.83.1Z"/>
    <path class="cls-5" d="M12.02,27.51c-.46,1.08-.86,2.22-.28,3.3-.47.07-.73-.27-.83-.59-.18-.55.27-2.91,1.11-2.71Z"/>
    <path class="cls-5" d="M45.83,45.52c-.84-1.38-.74-3.03.33-4.24,1.06.23-.96.42-.14,3.51.2.19.98.16.64.41-.26.19-.08.53-.32.61-.22.08-.37-.28-.52-.29Z"/>
    <path class="cls-5" d="M46.79,40.13c.24-.8.35-1.64.37-2.48.27.08.54.2.47.44-.44,1.57.05,2.02-.84,2.04Z"/>
    <path class="cls-5" d="M18.22,48.21c-.49-.3-.75-.99-.59-1.52.24.5.67.85,1.2,1.11-.23.29-.44.32-.61.41Z"/>
    <path class="cls-5" d="M27.29,33.54l-.28-.07-6.31.1-.04,5.04c0,.32-.59,1.13.03,1.14.8.02.96-1.04,1.29-1.49.48.1.92.37,1.42.3-.03.17-.04.39-.24.44-.13.04-.46-.11-.75-.11-1.45,3.82.36,2.95-.21,4.22-.36-1.23-3.65-2.47-4.9-3.19.85-.64,1.64-.36,2.43-.13.16-.89-.53-1.13-1.22-1.37-.62-.22-.63-2.06-1.48-1.6-.25.14.14,1.58-.97,1.53-.36-.02-.79-.32-.77-1.03.03-1,1.41-2.56,2.4-2.13.58.25.67,1.48,1.59.96-.31-.99-.42-1.97.2-2.82.49-.67,1.39-1.14,2.4-1.37.49-.44.23-1.18.86-1.52.13.88.07,1.71,1.05,1.95.32-.91.42-1.79,1.08-2.38-.34-.34-.78-.25-.85-.76,4.72.34,3.89,3.6,5.37,2.81.04.56-.59,1.02-1.02,1.27-.32-.58-.26-1.44-.89-1.74-.42-.2-.66.59-.74.9-.1.41.24.77.55,1.04Z"/>
    <path class="cls-4" d="M43.63,33.93c0-.29.4-.09.47.02.06.1.03.34-.12.44-.1.07-.34-.17-.35-.46Z"/>
    <g>
      <path class="cls-2" d="M33.66,20c.2.11.6.4.85.29-.08.2-.4.44-.28.73.08.19.68.11.71.32s-.39.4-.26.55c.09.1.24.15.42.22.26.1.17.28-.02.34-.25-.02-.59.07-.83-.04-.68-.31-1.12-.73-1.66.06-.26.38-.59.41-.09,1.5-.95-.37-1.69-.15-2.2-.71.22-.01.7.06.82-.31.2-.62-.14-1.62-.77-1.81-1.01,1.31-3.6,1.53-4.73,1.01-.45-.21.27-.53-.35-1.18.78-.35,1.59.67,2.42.39l1.76-.61c-1.87-.81-3.82-1.8-3.06-3.67.15-.38.49-.91,1.17-.88.24,0,.42.23.52.17.19-.11.14-.24.13-.36,0-.2-.43-.19-.65-.3-.38-.18.15-1.6.48-1.36.36.36.55.91.94.63.2.64.51,1.16,1.19,1.16,1.86,0,.75-1.65,3.36-3.42.94-.64,1.47-1.46,2.06-2.45.76.45.26.98.4,1.31.23.12.63-.3.78-.25.73.26-.68,1.53-.69,1.88,0,.19.52.47.45.71-.13.41-.67.53-.75.88-.06.22.31.71.17.95-.37.66-1.3.5-2.06.71.2.47.68.3,1.3.38.07.93-2.64,1.33-3.39,2.13l1.86,1.02Z"/>
      <path class="cls-5" d="M31.49,37.14c-.14,3.62,2.64,4.11,2.36,6.25-.85-.6-2.2-4.54-3.05-4.09-.26.14-.2.41,0,.7l3.58,5.52c.27-.39.11-.68.14-.92.91.04,1.91.24,2.7-.3-.46.69-.04,1.53.21,2.31-.72-.08-1.59,2.68-3.82,3.43.4-.29.68-.83,1.02-1.24-.13-.27-.59-.22-.75-.49l-3.96-6.77-4.03,7.06c-.15.26-.45.29-.6.28-.42-.6-1.3-.67-1.73-1.38-.24-.39-.37-1.1-1.03-.73-.46.26-.36,1.02-.27,1.51.06.33.59.48.87.87-.49.07-.94-.09-1.24-.49-.35-.47-.27-1.04-.09-1.67.2-.72.46-1.31,1.36-1.12-.03-.6-.2-.93-.3-1.31.84.08.85,1.01,1.59,1.68.24-1.01.63-1.49,1.07-1.98.05.29-.35.66.11,1.01l4.28-6.12c.31-.44,1.25-.21,1.16-.98-.07-.55-.34-.83-1.17-1.22,1.01-.51,1.34-1.38,1.19-2.49l-1.69-.09c2.27-1.29,1.91-2.45,3.72-3.15.7-.27,1.53-.17,1.77.57.13.4.22,1.07-.27,1.49-.2-.63-.25-1.09-.62-1.17-.45-.11-1.17-.31-1.29.24-.08.37.06.67-.07.91-.12.21-.49.08-.82.52l6.87.08c-.02,1.53.2,2.84-.13,4.4-.69-.64-.74-1.27-1.38-1.6.44-.08.85.36,1.16.16.14-.83.16-1.67-.09-2.57-2.17-.22-4.36-.05-6.38.11-.72,1.06-.34,1.98-.37,2.83Z"/>
      <path class="cls-2" d="M33.59,50.03c-1.17.86-2.18,1.82-3.66,2.61-1.71-1.08-3.54-2.18-4.66-3.77.16,0,.45-.03.6-.28l4.03-7.06,3.96,6.77c.16.28.62.22.75.49-.33.41-.61.95-1.02,1.24ZM31.73,49.92c-.19-1,.16-1.29.76-1.67-.34-.32-.77-.39-.84-.77-.04-.23.14-.49.02-.92-.66.44-1.18-.22-1.71-.35-2.96,1.02-.91.55-2.51,2.04.43.43.87.91.76,1.68,1.6-.26.88.12,1.76.61.44-.53.98-.91,1.76-.61Z"/>
      <path class="cls-5" d="M39.52,17.97c.17.7-2.29.64-2.15,2.78.22,3.45,3.72,1.17,3.53,4.48-.65-1.07-1.3-1.78-2.37-1.7-.95.07-1.66.68-1.58,1.93.71-.66,1.62-.79,2.15-.27.6.58.61,1.46.32,2.04-.37.75-1.3.77-2.03.36-.55-.31-.72-1.17-1.33-1.37-.67-.22-1.61-.05-2.21.19.66.54.94,1.05.92,1.54-.01.38-.69,1.14-1.1.86-.53-.37-.57-1-1.25-.52-.45.31-.56.62-.76,1.4-.49-.73-.8-1.55-.58-2.51.56.47.82.82,1.31.56.35-.18,1.1-.48.78-.98-1.26-1.96-4.42-1.03-6.11-.66-.2-.59-.98-.45-1.46-.72.37-1.01,1.67-1.47,2.65-1.08-.02.21-.04.45.05.59.14.2.48.26.77.25.62-.02,1.02-.11.83-.76-.07-.22.17-.63-.43-.38.11-.11-.02-.49.17-.59.21-.12.44-.12.64-.13.5.56,1.25.33,2.2.71-.5-1.09-.17-1.11.09-1.5.54-.79.98-.37,1.66-.06.19.61-.78.37-1.26.73.42,1.01,2.01,1.58,3.16,1.27.59-.16,1.39-1.1,1.34-1.65-.72-1.04-.69-2.17-.31-3.47.27-.94,1.43-1.3,2.34-1.32ZM31.49,24.08c-.6-.22-.82-.34-1.21-.03.33.27.89.24,1.21.03Z"/>
      <path class="cls-5" d="M22.18,25.15c-.08.31-.17.66-.17,1.08,1.15.41,2.1-.23,3.14-.55-.06.22-.14.51.05.74.26.31.67-.06,1.87-.32.06.56-.72.73-.84,1.45,1.07.32,2.05-.05,3.16-.36.09.5.43,1.29.24,1.81-.94.61-2.25.39-3.27.19,1.03-.5,1.99-.04,2.86-.75l-3.36-.07c-.23,0-.39-.36-.57-.45-.21-.1-.46.38-.7.35-.5-.06-2.78-.59-3.05-1.76-.1-.45-.15-1.26.63-1.35Z"/>
      <path class="cls-2" d="M33.68,10.81c0,1.31-2,2.23-3.08,4.4-.6-.33-1.04-.67-1.56-.6.09-.52.31-1.12.07-1.75-.78-2.04-2.78,1.77-3.58.63-.26-.37.01-1.05.1-1.29.02-.06,3.17-1.33,4.5.09.51-1.3.96-2.51.59-3.9,1.04.2.84.97,1.18,1.76.45-.36.22-.91.53-1.33.66.61.26,1.4.37,2.17.37-.15.48-.4.66-.42.11,0,.2.15.23.24Z"/>
      <path class="cls-5" d="M33.66,20l-1.86-1.02c.74-.8,3.45-1.19,3.39-2.13-.63-.08-1.11.1-1.3-.38.76-.21,1.69-.05,2.06-.71.14-.24-.23-.73-.17-.95.09-.35.62-.47.75-.88.08-.24-.45-.52-.45-.71.01-.35,1.42-1.63.69-1.88-.15-.05-.55.37-.78.25-.14-.34.36-.86-.4-1.31-.6,1-1.13,1.82-2.06,2.45-2.61,1.77-1.51,3.42-3.36,3.42-.68,0-.99-.52-1.19-1.16l.07-.38c.52-.07.96.27,1.56.6,1.08-2.17,3.07-3.08,3.08-4.4.72-.28,1.2-1.28,1.88-1.7.31-.19,1.33.17,1.38.58.13,1.14,1.06,2.34.96,3.43-.33,3.92-2.35,2.85-3.26,5.87l-1.2-.05c-.28.34.13.77.22,1.06Z"/>
      <path class="cls-5" d="M35.07,22.46c.2-.06.29-.24.02-.34-.18-.07-.33-.12-.42-.22-.14-.15.28-.33.26-.55s-.63-.13-.71-.32c-.12-.29.19-.53.28-.73.5-.3.91.06,1.11.35.52.75.3,2.4-.36,2.34-.14-.01-.14-.46-.18-.53Z"/>
      <path class="cls-2" d="M28.26,24.29c.33.13.99-.07,1.23-.3.6-.24.36.16.43.38.19.65-.2.74-.83.76-.29.01-.63-.05-.77-.25-.09-.14-.07-.38-.05-.59Z"/>
      <path class="cls-5" d="M37.2,44.03c-1.01-1.17,1.78-2.43.24-4.62.15-.11.34-.48.52-.48.46.02.28,1.02.59,1.18.15.08.55-.05.51-.33-.34-2.44.49-3.47.13-6.28l-3.79-.22c.54-1.55-.08-2.48-1.49-3.32,1.16-.78,1.99-.83,2.39-1.87.04,3.73.65.86.69,4.35,1.03-.25,1.06-.99,1.35-1.52.47,2.32,1.85,1.17,2.39,3.13.26.94.03,1.68-.62,2.37,1.19.42,1.42-.99,2.11-1.27.92-.38,2.14,1.07,2.33,1.91.14.63-.11,1-.37,1.15-.42.23-.95.12-1.11-.22-.13-.29-.08-.87-.3-1.19-.89.02-.95,1.12-1.6,1.54-.57.37-1.18.68-1.14,1.5.91-.33,1.81-.52,2.47.06-1.56.86-3.09,1.53-4.45,2.61-.43.34-.18,1.39-.86,1.52Z"/>
      <path class="cls-4" d="M29.16,36.82c0,1.99-2.52,6.13-3.67,7.42-.44.49-.83.97-1.07,1.98-.74-.67-.75-1.6-1.59-1.68-.02-.07-.04-.17-.04-.24,0-.25-.06-.52-.32-.6-.05-.16-.35-.41-.27-.58.57-1.26-1.24-.39.21-4.22.29,0,.62.14.75.11.2-.06.21-.28.24-.44.02-.1.16-.18.23-.26.32,0,.65.05,1.08-.03.22-.04.26-.33.18-.61.09,0,.18-.03.27-.01.27.03.67.04.65-.33.45-.13.95-.34,1.37-.55.64-.32,1.35-.29,1.99.04Z"/>
      <path class="cls-4" d="M37.44,39.42c1.53,2.19-1.26,3.45-.24,4.62v.27c-.78.54-1.78.34-2.7.3-.13-.18-.23-.36-.32-.56-.09-.13-.2-.24-.33-.33-.03-.09-.02-.23-.01-.32.29-2.14-2.5-2.63-2.36-6.25,1.1-.05,2.29-.07,3.48.07-.02,0,.26.95.58.79.27-.13.03-.55.29-1.14.17,1.23,1.01,1.72,1.6,2.56Z"/>
      <path class="cls-4" d="M27.59,34.06l-.04.26c-.97-.16-1.97-.12-2.95-.21-.19-.02-.41-.02-.6,0-.75.07-1.47.08-2.36.3-.04,1.41-.14,2.7.34,3.86-.33.45-.49,1.5-1.29,1.49-.61-.01-.03-.82-.03-1.14.06.21-.11.54.32.61l.03-5.37c2.1-.34,4.2.46,6-.38l.28.07c.16.13.24.34.3.53Z"/>
      <path class="cls-5" d="M29.16,36.82c-.64-.33-1.34-.36-1.99-.04-.03-.39-.21-.72-.5-1.11l1.62-.15-.74-1.2.04-.26c1.34-.22,1.57,1.99,1.57,2.75Z"/>
      <path class="cls-5" d="M22.79,44.29c-.29-.06-.27-.41-.32-.6.26.08.33.35.32.6Z"/>
      <path class="cls-2" d="M33.85,43.39c-.01.09-.02.23.01.32.05.13.14.43.33.33.09.2.19.39.32.56-.03.24.13.54-.14.92l-3.58-5.52c-.19-.3-.25-.57,0-.7.85-.46,2.2,3.49,3.05,4.09Z"/>
      <path class="cls-5" d="M31.73,49.92c-.78-.3-1.33.08-1.76.61-.88-.49-.16-.87-1.76-.61.11-.77-.33-1.24-.76-1.68,1.6-1.49-.45-1.02,2.51-2.04.53.13,1.05.78,1.71.35.12.43-.07.69-.02.92.07.38.5.45.84.77-.59.38-.95.67-.76,1.67ZM30.95,48.26c0-.57-.46-1.03-1.03-1.03s-1.03.46-1.03,1.03.46,1.03,1.03,1.03,1.03-.46,1.03-1.03Z"/>
      <path class="cls-2" d="M31.49,24.08c-.32.22-.88.24-1.21-.03.39-.31.61-.19,1.21.03Z"/>
      <path class="cls-2" d="M24,34.11c-.05.24.19.39.44.3.1-.03.2-.14.16-.3.98.09,1.98.05,2.95.21l.74,1.2-1.62.15c.29.39.47.72.5,1.11-.42.21-.93.42-1.37.55-.14-.06-.29-.28-.43-.19-.24.15-.35.34-.22.52-.08-.01-.18.02-.27.01-.64.76-2.07-.76-1.26.64-.06.08-.21.15-.23.26-.5.07-.94-.2-1.42-.3-.48-1.16-.39-2.45-.34-3.86.9-.22,1.62-.23,2.36-.3Z"/>
      <path class="cls-2" d="M27.01,33.47c-1.8.84-3.9.05-6,.38l-.03,5.37c-.42-.07-.25-.4-.32-.61l.04-5.04,6.31-.1Z"/>
      <path class="cls-5" d="M24.88,37.67c.08.28.04.56-.18.61-.43.08-.76.04-1.08.03-.81-1.4.62.12,1.26-.64Z"/>
      <path class="cls-5" d="M25.8,37.33c.02.37-.38.36-.65.33-.13-.18-.02-.38.22-.52.13-.08.29.14.43.19Z"/>
      <path class="cls-5" d="M34.19,44.04c-.19.09-.28-.2-.33-.33.13.09.24.21.33.33Z"/>
      <path class="cls-5" d="M24.6,34.11c.04.16-.06.27-.16.3-.26.09-.5-.06-.44-.3.19-.02.41-.02.6,0Z"/>
      <circle class="cls-2" cx="29.93" cy="48.26" r="1.03"/>
    </g>
  </g>
  <g>
    <path class="cls-4" d="M27.56.06c.78-.12,1.59-.09,2.45-.01.66.06,1.27-.02,1.86-.01.39,0,.83-.05,1.21.01,2.54.41,5.03.93,7.46,1.81.13.05.29.09.43.08-.63-.08,2.03,1.01,1.85.84.06.08.22.11.3.18.14.12.29.21.49.2.04.09.18.11.26.13.46.55,1.28.76,1.92,1.18.51.34.9.84,1.47.93l.16.16c.28.27.58.52.9.74l.3.2c-.02.24.24.21.35.3,2.13,1.85,4.04,3.93,5.64,6.25-.01.1.01.21.1.31.04.05.1.1.18.04,0,.04,0,.09.01.13,0,.1.04.2.12.29.05.05.09.11.17.04-.01.2.14.45.34.56.14.22.11.7.44.66,0,.04,0,.1,0,.14l1.62,3.57c.17.37.15.83.49,1.01-.01.08.02.21.04.28,1.03,3.6,1.7,7.25,1.49,11.06-.27,4.83-1.67,9.23-3.9,13.4-.03.06-.05.14-.09.19-.49.51-.79,1.18-1.15,1.79-.17.28-.61.54-.62.9-2.01,2.44-4.22,4.61-6.7,6.56-.15.12-.36.11-.49.3-.09.13-.47.07-.47.33-.11,0-.19.13-.28.16-.37.1-.73.26-.93.6-.05.02-.11.02-.17.04-.43.19-.91.34-1.2.72-.11-.02-.21.12-.3.14-.3.05-.77.07-.81.43-.12-.05-.28.05-.4.05-.1,0-.2.02-.32.09-.06.04-.13.08-.05.17-.13,0-.25.04-.37.05-.32.04-.68.13-.82.44-.08,0-.2,0-.28.01l-.32.17c-.09,0-.18.03-.27.02-.1-.01-.21-.04-.34.05-.05.04-.12.1-.04.18-.22-.06-.39.11-.57.17-.25.08-.63-.08-.79.19h-.26c-.12.01-.35,0-.35.15-.15-.04-.3.11-.43.12-.57.03-1.16.12-1.69.33-.07.03-.19,0-.27,0-.17.02-.45-.07-.51.14-.23,0-.47.06-.7.04s-.56-.13-.67.12c-.35-.02-.7.07-1.04.1-.38-.33-.86-.03-1.25.03-.58.09-1.19-.05-1.78,0-.29-.22-.8-.24-1.1-.03-.33-.04-.7-.12-1.04-.1-.06-.22-.35-.12-.52-.12h-.72c-.7-.22-1.45-.46-2.17-.48h-.31c-.26-.16-.56-.24-.85-.25l-.35-.02c-.27-.28-.68-.31-1.05-.37-.09-.01-.19-.05-.28-.05.09-.12-.06-.21-.14-.23-.09-.03-.16,0-.23-.01h-.25c0-.17-.23-.15-.35-.17-.09-.02-.19-.02-.28-.01-.46-.4-1.1-.57-1.68-.75-.05-.01-.1,0-.15-.02.04-.12-.02-.22-.11-.26-.08-.04-.18-.04-.29-.07-.61-.18-1.03-.63-1.6-.73-.15-.03-.27-.17-.43-.16.23-.1-1.92-1.4-2-1.33-.09-.05-.23-.2-.34-.22-.22-.3-.57-.56-.92-.69-.09-.03-.15-.15-.26-.15-.06-.24-.31-.31-.46-.46-.13-.13-.32-.24-.47-.31l-4-4.18c-.07-.07-.12-.17-.18-.25-1.21-1.73-2.31-3.5-3.33-5.35-.08-.15-.12-.35-.18-.51l-.94-2.39c-.05-.12-.16-.17-.23-.19.01-.04,0-.12,0-.17l-.02-.43c-.1-1.96-.95-3.91-1.38-5.85-.05-.21,0-.5-.02-.72-.34-4.34.2-8.69,1.7-12.84.11-.3.17-.53.19-.78v-.14c.08-.01.19-.06.25-.19,1.02-2.55,2.46-4.81,4.01-7,.1-.14.31-.26.31-.45,1-.9,1.77-2.12,2.76-3.04l.47-.44c.11.02.22,0,.33-.05.09-.05.1-.2.14-.28.49-.25.91-.83,1.35-1.1,1.15-.71,2.3-1.47,3.38-2.28.38-.15.83-.41,1.22-.6,2.93-1.4,5.98-2.3,9.14-2.94.13-.03.3.02.44.03.34,0,.69.07.98-.14.16-.06.4.01.57-.01ZM30.91,4.97c-.04.35.02.71.14,1.04l-.7,1.99c.34.91.8,1.9.2,2.89-.52-.11.24-1.09-.77-2.26-1.12-1.29-3.11-.18-3.49-.13-.58.08-1.28.15-1.48.82-.25.87-.25.52-1,1.09-.96.73,1.69,0,1.6-.17.09-.19-.17-.56-.11-.72.05-.14.29-.42.46-.35.24.27-.12.85.21,1.08.81.56,1.36-1.89,2.58-1.37.81.35.92,1.51.4,2.14.23.12.69.02.61.37-.04.18-.4.1-.49.18-.11.1-.15.3-.2.48-.09.29-.39.37-.6.31-.72-.21.38-1.33-.48-1.21-.56.08.22.78-.6,1.65.98.11,1.66.52,2.41,1.26.32-1.26,1.01-.73,1.07-1.24.02-.14-.08-.28-.27-.32-.13-.02-.26.07-.35.25-.17.31-.46.4-.72.16-.42-.37.09-.66.41-1.5.29.37.11.74.5.73s.66-.1.8-.5c.92-2.51,3.23-3.07,2.56-4.92-.42.31-.76,1.13-1.14.75-.17-.17.19-.17.24-.31.22-.64.29-1.5-.04-2.15-.49-.38-.17,1.45-.9,1.45-.03-.43.02-.77-.15-1.07-.07-.12-.05-.38-.2-.46-.08-.34-.28-.69-.77-.6.02.3.16.47.29.64ZM34.46,19.67c.88-.21,1.48-.47,1.43-1.22-.8.44-1.59.78-2.42.22l1.1-.39c-1.02-.19-1.43-1.2-2.22-1.61-.74-.38-1.94.17-2.54-.87,2.18.41,4.43-.01,5.78-1.81-.69-.2-1.23.23-1.75-.16.75-.24,3.4-.85,3.02-1.99-.76.28-1.43.82-2.35.54.78-.49,3.55-1.79,2.92-2.86-.64.4-1.1,1.03-1.84.85.9-.91,2.26-2.29,1.37-3.34-.31.58-.34,1.19-1,1.31.3-.92.73-2.63-.54-2.79.47,2.65-1.83,3.43-3.14,5.17-.89,1.17-1.22,3.5-3.06,3.91-.46.1-.88.13-1.25.38-.04-.6.5-.6.96-.83-.29-.41-1.15-1.05-1.78-.8-1.04.42-1.19,1.88-.76,2.79.7,1.48,2.45,1.95,3.94,2.66.6.29.81.69.98,1.32.06.21.45.32.38.6-.04.18.07.64-.31.61-.61-.06-1.28-.24-1.57.56,1.13-.41,3.34.38,3.09-.14-.38-.24-.79-.44-.61-.94.29-.09.56.06.8-.11-.16-.28-.29-.41-.42-.52-.09-.08.06-.49.21-.44.58.22,2.62,1.53,3.09,0-.55.2-1.15.25-1.52-.12ZM25.7,10.68c-.75-.12-1.04.38-1.13.85.59-.16.81-.58,1.13-.85ZM20.98,33.55c.21-.02.42-.02.62-.02h.46l4.31-.04c.23,0,.47-.02.74-.07-.17-.47-.52-.47-.92-.47-1.94-.02-3.8-.07-5.74.04-.11,3.54,0,6.4.61,9.96-1.84-1.51-2.47-1.42-4.11-2.57,1.02-.33,1.85-.76,2.56.23.26-.48.08-.99-.22-1.35s-.79-.51-1.46-.52c.03-.5.11-.95-.2-1.35-.26-.35-.71-.69-1.24-.57.29.43.39.77.28,1.18-.09.32-.41.74-.89.71-.67-.05-.88-.76-.78-1.39.19-1.28,1.27-2.15,2.5-2.64.17.99.73,1.88,1.87,1.75-.9-1.38-.73-3.02.42-4.09.64-.59,1.52-.77,2.23-1.13.12-.52-.04-1.38.63-1.66-.01.75-.09,1.37.38,1.96.33.42.91.89,1.69.67-.72-.55-.97-1.21-.65-1.96.18-.41.46-.76.78-1.14l-1.47-.75.86-1.56c-.86.03-1.57-.03-2.18-.52-.5-.4-.84-1.11-.77-1.89.06-.61.45-1.13.9-1.28.64-.21,1.22,0,1.76.55.21-.54.07-1.1-.29-1.56-.3-.38-.81-.58-1.4-.57-1.15.02-1.99.74-2.32,1.84-.21.73.06,1.43-.05,2.26-.74-1.03-.69-2.35-.16-3.41.47-.95,1.28-1.22,2.26-1.38.86-.14,1.33-1.23,1.42-1.89.13-.97-.35-1.75-1.08-2.34-.88-.71-2.09-1.08-3.14-.57-.84.41-1.77,2.22-2.9,1.64-.43-.23-.61-.74-.7-1.43-.57.5-.7,1.25-.53,2.04.13.62.66,1.27,1.56,1.37,0-.37-.19-.68.03-1.11.31.46.61.7,1.04.7,1.69,0,1.7-1.44,3.19-1.81.57-.14,1.09.18,1.4.53.38.43.5.98.26,1.52-.25-.53-.42-.97-1.03-1.24-.48,1.43-1.5,1.65-2.45,3.01-1.47-1.01-3.44-.8-4.42.68,1.19-.25,2.24-.27,2.97.58.51.59.65,1.34.81,2.09.38,1.86,1.83,3.18,3.79,3.17-1.45,2.95-4.83,4.34-7.86,3.06-1.05-.44-1.53-1.47-1.29-2.66-.78.22-.8.97-1.11,1.59-.4-1.15.3-2.45,1.53-2.63.56-.08,1.09.2,1.29.61.25.52.1,1.1-.41,1.54.6.27,1.15.02,1.51-.42.33-.39.34-.97.3-1.65.89.42.3,1.28.46,1.89.23.85,1.76.84,2.41.33-1.84-1.01-.86-2.5-2.79-3.39.45-.54.76-1.02.55-1.68-.13-.42-.62-1.03-1.2-1.01,0,.58.17,1.07-.15,1.48-.77.97-4.24-.16-4.32,3.51-.04,1.69.76,3.14,2.43,3.73.45.16.95.16,1.48.45-1.08.81-2.64-.2-2.29.61.03.08.15.13.3.19,1.59.7,3.15.19,4.75-.65-.37,1.08-1.42,1.25-2.33,1.62-1.54.62-1.84,2.81-1.04,4.52-1.16-.72-1.14-2.07-1-3.42-1.08.79-1.2,2.05-1.15,3.21.06,1.23.6,2.29,1.16,3.35.72,1.35,1.52,3.98-.09,4.99,1.58.18,2.51-1.27,2.51-2.75.95.13,1.24.93,1.33,1.78.67-.57.88-1.89.08-2.44-1.25-.85-2.83-1.44-3.25-3.09,1.12,1,2.05,1.75,3.3,2.29,1.73.74,4.71,2.32,3.88,4.79-.44-.84-.33-1.87-1.36-2.32.26.92.68,2.66-.39,2.91-.36.08-.73-.09-.89-.3-.3-.4-.16-.8,0-1.31-.82.09-1.14.8-1.19,1.47-.05.72.74,1.15,1.23,1.56-.49.68-1,1.28-.86,2.12.11.67.28,1.45,1.31,1.82-.62-.98.22-1.54.44-2.28s-.32-1.92.84-2.34c-.33.77-.44,1.81.2,2.4.76.7,2.12.65,2.79-.06-.55-.17-1.05-.08-1.39-.47-.95-1.09,0-2.61.34-4.22l1.63,2.88c.23.4.4.56.69.88,1.59,1.78,3.18,3.44,5.33,4.8,3.17-2.11,6.14-5.17,7.67-8.72.16,1.67,1.2,2.8.48,4.16-.3.56-.91.54-1.56.66.73.8,2.1.77,2.82-.02.59-.64.45-1.46.18-2.21.86.29.92,1.22.76,1.89-.23.98,1.14.81.57,2.64.92-.32,1.16-1.12,1.27-1.8.14-.88-.45-1.51-.87-2.17.59-.35,1.23-.81,1.19-1.51s-.25-1.39-1.16-1.48c.15.43.24.84.06,1.21-.12.26-.52.48-.95.39-1.06-.23-.65-1.93-.61-2.71-.57.31-.72.87-.96,1.46-.32-.24-.33-.62-.18-.99.45-1.12,1.37-1.83,2.42-2.37.46-.24.87-.53,1.35-.73,1.19-.49,2.17-1.2,3.14-2.12.29,1.19-2.54,2.53-3.06,2.95-.7.56-.5,1.85.21,2.41.06-.85.31-1.66,1.24-1.81.07,1.52.95,2.92,2.56,2.75-1.88-1.27-.59-4.11.23-5.64.72-1.35,1.03-2.87.66-4.35-.17-.65-.41-1.35-1.09-1.62.32,1.24.35,2.75-.82,3.33.7-1.55.46-3.53-1.01-4.29-.94-.49-2.17-.59-2.53-1.83,1.49.98,3.08,1.48,4.65.84s-1.65-.32-1.83-.82c.66-.45,1.32-.4,1.97-.64.1-.04.24.07.31.06.12-.01.06-.31.16-.38,1.12-.73,1.63-2.13,1.5-3.56s-1.15-2.45-2.68-2.28c-.39.04-.79-.23-1.02-.42-.34-.26-.25-.66-.3-1.22-.49-.08-.78.49-.94.81-.26.53-.05.99.34,1.57-1.85.89-.87,2.3-2.47,3.32.56.41,1.96.29,2.09-.49.09-.54-.43-1.36.39-1.56.01.67,0,1.06.31,1.39.33.36.74.6,1.37.39-.52-.44-.56-1.09-.31-1.55.33-.62,1.1-.77,1.72-.41.85.5,1.05,1.66.6,2.46-.08-.73-.22-1.52-.98-1.86.24,1.19-.25,2.21-1.33,2.66-2.68,1.11-5.73-.03-7.13-2.66,1.56.3,2.8-.26,3.41-1.56.83-1.79.39-3.62,1.82-4.52.57-.36,1.22-.16,1.94.05-.12-.94-1.01-1.44-1.92-1.47-.73-.02-1.27.22-1.88.76-.75-1.45-2.46-2.36-2.33-4,.04-.55.35-.99.95-1.09-.13.19-.52.85-.2,1.1.46.37.93.65,1.22,1.21.66,1.24,2.05,1.49,3.1.72s1.22-2.29.13-3.16c-.14.41-.07.77-.27,1-.13.16-.63.15-.73.34-.22.44.35.73.67,1.05-.29.42-.83.13-1.06-.24l-1.06-1.68c-.55-.87-1.49-1.22-2.5-.84-.49.18-1.1.38-1.47.82-1.09,1.26-.86,3.38.54,4.28.44.28,1.07.09,1.49.46,1.29,1.12,1.57,3.01.87,4.54.03-1.25.08-2.43-.67-3.38-.54-.69-1.36-1.01-2.15-.73s-1.33,1.16-1.02,2.08c.4-.61,1.01-.76,1.67-.53.54.18.86.81.9,1.47.05.73-.14,1.49-.77,1.75-1.95.8-2.06-2.14-3.74-2.32.08.49.54.68.49,1.22-1.99-1.81-5.44-1.93-7.8-1.03-.9.34-1.69.92-1.87,1.98,3.28.3,2.58-1.23,5.1-.92l.5,1.19c.59-.02,1.37-.28,1.65-.83.15-.3-.32-.62-.39-.85.78-.27,1.47.36,1.8,1.03.23.48.13.93-.13,1.31-.24.36-.69.57-1.17.5-.05-.49.16-.86.03-1.43-.45.46-.91.73-1.44,1.04-.59.34.26,1.48-.12,1.74-.51-.34-.98-2.6-1.13-3.02-.12-.32-1.05-.26-1.2.03-.3.58.76,1.91-.29,2.05-1.17.16-2.36.22-3.49-.19.68-.21,3.46-.06,3.31-.88-.08-.41-2.79.41-3.7.17-.1-.28,0-.54-.04-.85-.56-.04-1.24,1.34-1.22,1.39.18.53,1.59.39,3.31,1.88.62.53.86,1.26,1.21,1.97,1.11-1.24,2.32-2.24,3.96-2.18-1.47.68-2.66,1.57-3.67,2.81-.25.3-.46.63-.83.84-.01-.99-.05-1.91-.93-2.51-.24.51-.82,1.3-.51,1.81.28.46.89.69,1,1.38,1-.36,1.85-.54,2.91-.55.55-1.32,2.35-3.57,3.78-2.95.81.35.83,2.17.39,2.59-.15-.66-.23-1.27-.71-1.49-.44-.2-1.38-.21-1.47.32-.06.3.48.87.1,1.07-.32.17-.88-.07-.88.57l7.08.04c.08,3.6.02,8.3-1.34,11.55-.62,1.49-1.2,2.96-2.27,4.16-.39.44-.52.93-1.08,1.4l-4.27-8.26-4.3,8.28c-2.58-2.88-4.07-6.49-4.47-10.4-.27-2.27-.23-4.46-.2-6.67ZM30.08,19.64c-.44-.45-.96-.84-1.51-.87-.15,0-.3.26-.35.33-.05.06.21.18.23.3.03.27-.57.38-.76.14-.35-.46-.79-.46-1.27-.63-.52-.18-1.15-.42-1.37.21.34.06.65-.05.66.25-.39.22-.72.7-.45.99.21-.07.4-.37.57-.34.36.06.38.78.74.64.16-.06-.12-.77.32-.91.16-.05.39.02.51.2.59.91,1.6-.09,2.69-.33ZM29.86,23.39c.48-.94.64-.85,1.85-.91-.22-.43-.74-.32-1.06-.3-.44.03-.53.39-.75.74-.47-.43-.98-.56-1.46-.28-.2.12-.29.35-.22.53.22.61,1,.34,1.64.21ZM33.76,23.64c-.11-.59-.26-.88-.55-1.05s-.71-.28-1.05-.09c-.27.16-.26.74.05.83.56.15,1.06.26,1.55.31ZM26.82,24.4c-.24-.28-.41-.26-.47-.37.54-.48.87-.84,1.51-1.01-.28-.31-.67-.04-.97-.01-.47.04-.35.61-.61.82-.36.26-1.02.02-1.25.59-.1.24-.1.61.11.75.15.1.46.13.65,0l1.03-.75ZM35.59,23.73c.07-.61-.41-.79-.67-.85-.39-.1-.89-.27-.99.39.68-.23,1.14.06,1.66.46ZM26.57,34.75c.36-.01.33.65.34.83.43.09.89.03,1.32-.2.55-.29-.66-.76-.88-1.37l-5.87-.02c-.04,1.03-.07,1.96.04,2.97l1.33-.77.69.84c.36-.21.71-.34.99-.61-.12-.25-.54-.75-.21-.93.65-.36,1.44-.72,2.25-.74ZM35.33,36.48c.45.26.77.51,1.18.54.11-.28.19-.81.5-.77.57.06.79.69,1.38.68l.02-2.93h-6.61c-.18.52-.23.92-.32,1.38.49.13.91.19,1.4.2.11-.32.09-.59.28-.92.92.11,1.78.46,2.56.93-.1.39-.25.56-.39.89ZM30.71,36.51c.36-.77.35-1.59.56-2.38-.96-.07-1.72.09-2.6.37.14.65.07,1.61.54,2.07.27.26,1.34.27,1.5-.07ZM26.6,37.02c-.02-.73-.07-1.24-.24-1.8-.61.13-1.13.24-1.62.6.29.56.63,1.09.98,1.54.15.2.89-.08.88-.34ZM34.11,37.4c.42-.46.72-1.04,1.01-1.59-.52-.36-1.01-.42-1.63-.62-.04.63-.25,1.27-.23,1.83,0,.23.7.55.85.38ZM27.15,37.05l1.44-.34c.02-.33-.05-.54-.16-.87-.57.12-1.14.07-1.6.44.11.26.16.51.32.77ZM32.66,37.26c.13-.32.33-.88.1-1.12-.26-.17-.85-.28-1.16-.22-.34.07-.41.72-.16.87.49.02.83.08,1.22.47ZM23.43,38.38c-.17-.63-.48-1.04-.69-1.55-.54.27-.91.56-1.26,1.01.32.5.78.96,1.23,1.25.26-.03.81-.36.72-.71ZM24.1,38.32c.52-.22.83-.41,1.19-.67-.12-.31-.23-.55-.48-.76-.45.17-.81.35-1.17.63.06.33.1.64.45.8ZM35.86,38.32c.29-.28.35-.51.36-.79-.36-.27-.71-.5-1.13-.63-.24.25-.35.45-.5.79l1.27.63ZM37.16,39.08c.4-.28,1.04-.71,1.12-1.14.05-.54-.77-.9-1.15-1.07-.25.6-.6,1.01-.7,1.58-.04.25.53.75.74.63ZM24.82,47.62c2.06-2.38,3.2-5.66,5.01-8.02.34-.44,1.48-.37,1.23-1.31-.17-.67-.72-1.01-1.28-.95-1.07.11-.59.99-.88,1.57l-3.56,7.17c-.25.51-.53.95-.53,1.54ZM22.29,39.48c-.1-.33-.39-.49-.63-.59-.08.45,0,.79.08,1.19.21-.17.61-.37.54-.6ZM38.17,40.08c.1-.47.2-.83,0-1.24-.26.21-.58.39-.58.64,0,.25.3.43.58.6ZM35.19,47.79c-.09-.84-.41-1.33-.71-1.92l-3.23-6.36c-.36.25-.6.4-.83.51l3.72,6.37c.31.53.53,1.09,1.05,1.41Z"/>
    <g>
      <path class="cls-1" d="M34.46,19.67c.37.37.97.31,1.52.12-.47,1.53-2.51.22-3.09,0-.14-.05-.29.36-.21.44.12.11.25.25.42.52-.24.17-.51.03-.8.11-.19.5.22.7.61.94.24.52-1.97-.27-3.09.14.28-.8.96-.62,1.57-.56.38.04.27-.43.31-.61.06-.28-.33-.39-.38-.6-.17-.63-.37-1.03-.98-1.32-1.49-.71-3.23-1.18-3.94-2.66-.43-.91-.28-2.37.76-2.79.62-.25,1.48.39,1.78.8-.46.22-1,.22-.96.83.37-.25.79-.28,1.25-.38,1.83-.41,2.17-2.74,3.06-3.91,1.32-1.74,3.61-2.53,3.14-5.17,1.27.17.84,1.87.54,2.79.66-.12.69-.73,1-1.31.89,1.05-.47,2.43-1.37,3.34.74.17,1.2-.45,1.84-.85.63,1.08-2.14,2.38-2.92,2.86.92.28,1.59-.26,2.35-.54.39,1.14-2.26,1.75-3.02,1.99.51.39,1.06-.04,1.75.16-1.35,1.8-3.6,2.22-5.78,1.81.6,1.04,1.8.48,2.54.87.78.41,1.2,1.42,2.22,1.61l-1.1.39c.83.56,1.62.21,2.42-.22.05.75-.55,1.01-1.43,1.22Z"/>
      <path class="cls-1" d="M31.05,6.02c.21-.11.58-.24.55-.61.18.3.12.64.15,1.07.73,0,.41-1.83.9-1.45.33.65.27,1.51.04,2.15-.05.14-.4.14-.24.31.38.39.72-.44,1.14-.75.67,1.84-1.64,2.41-2.56,4.92-.15.4-.42.49-.8.5s-.21-.35-.5-.73c-.32.83-.84,1.13-.41,1.5.26.23.55.15.72-.16.1-.18.23-.27.35-.25.19.04.29.18.27.32-.06.52-.75-.02-1.07,1.24-.74-.73-1.43-1.15-2.41-1.26.82-.86.03-1.57.6-1.65.86-.12-.24,1,.48,1.21.21.06.51-.02.6-.31.05-.18.1-.38.2-.48.09-.08.44,0,.49-.18.08-.35-.38-.25-.61-.37.52-.63.41-1.79-.4-2.14-1.22-.52-1.77,1.92-2.58,1.37-.34-.23.03-.81-.21-1.08-.17-.07-.41.21-.46.35-.05.16.2.53.11.72.09.18-2.56.91-1.6.17.74-.56.74-.22,1-1.09.2-.68.9-.75,1.48-.82.38-.05,2.37-1.17,3.49.13,1.01,1.17.26,2.15.77,2.26.6-.99.13-1.99-.2-2.89l.7-1.99Z"/>
      <path class="cls-1" d="M35.33,36.48c.14-.34.29-.51.39-.89-.78-.47-1.64-.82-2.56-.93-.19.33-.18.6-.28.92-.49,0-.91-.06-1.4-.2.09-.46.14-.86.32-1.37h6.61s-.02,2.92-.02,2.92c-.58,0-.81-.63-1.38-.68-.31-.03-.39.49-.5.77-.41-.04-.73-.28-1.18-.54Z"/>
      <path class="cls-1" d="M26.57,34.75c-.81.03-1.6.38-2.25.74-.33.18.09.69.21.93-.28.28-.63.4-.99.61l-.69-.84-1.33.77c-.11-1.01-.07-1.93-.04-2.97l5.87.02c.22.6,1.43,1.08.88,1.37-.43.22-.89.28-1.32.2-.02-.18.01-.84-.34-.83Z"/>
      <path class="cls-1" d="M24.82,47.62c0-.59.27-1.04.53-1.54l3.56-7.17c.29-.58-.19-1.46.88-1.57.56-.06,1.11.29,1.28.95.25.95-.89.88-1.23,1.31-1.81,2.36-2.95,5.63-5.01,8.02ZM30.36,38.4c0-.24-.19-.43-.43-.43s-.43.19-.43.43.19.43.43.43.43-.19.43-.43Z"/>
      <path class="cls-1" d="M35.19,47.79c-.52-.32-.74-.88-1.05-1.41l-3.72-6.37c.23-.1.47-.26.83-.51l3.23,6.36c.3.59.63,1.08.71,1.92Z"/>
      <path class="cls-1" d="M30.71,36.51c-.16.34-1.23.33-1.5.07-.47-.46-.4-1.42-.54-2.07.88-.29,1.63-.44,2.6-.37-.22.78-.2,1.6-.56,2.38Z"/>
      <path class="cls-1" d="M30.08,19.64c-1.09.23-2.1,1.23-2.69.33-.12-.18-.35-.25-.51-.2-.44.13-.16.84-.32.91-.35.14-.38-.57-.74-.64-.17-.03-.36.27-.57.34-.27-.29.06-.77.45-.99,0-.3-.31-.2-.66-.25.22-.63.85-.39,1.37-.21.49.17.92.17,1.27.63.19.24.79.14.76-.14-.01-.12-.28-.23-.23-.3.06-.07.21-.34.35-.33.55.03,1.07.42,1.51.87Z"/>
      <path class="cls-1" d="M26.6,37.02c0,.27-.73.54-.88.34-.35-.45-.68-.98-.98-1.54.48-.36,1.01-.48,1.62-.6.17.56.22,1.07.24,1.8Z"/>
      <path class="cls-1" d="M34.11,37.4c-.15.17-.84-.15-.85-.38-.02-.56.19-1.2.23-1.83.62.2,1.12.26,1.63.62-.28.55-.59,1.13-1.01,1.59Z"/>
      <path class="cls-1" d="M37.16,39.08c-.21.12-.78-.38-.74-.63.1-.57.46-.98.7-1.58.38.17,1.2.53,1.15,1.07-.09.43-.72.86-1.12,1.14Z"/>
      <path class="cls-1" d="M23.43,38.38c.09.35-.46.68-.72.71-.45-.29-.91-.74-1.23-1.25.35-.45.71-.74,1.26-1.01.21.51.52.92.69,1.55Z"/>
      <path class="cls-1" d="M26.82,24.4l-1.03.75c-.19.14-.5.1-.65,0-.21-.14-.21-.51-.11-.75.23-.57.89-.32,1.25-.59.26-.2.14-.78.61-.82.3-.03.69-.29.97.01-.64.17-.97.53-1.51,1.01.07.1.24.08.47.37Z"/>
      <path class="cls-1" d="M33.76,23.64c-.49-.05-.99-.15-1.55-.31-.32-.09-.33-.67-.05-.83.34-.2.76-.08,1.05.09s.44.45.55,1.05Z"/>
      <path class="cls-6" d="M26.38,33.49l-4.31.04c.02-.14-.12-.16-.23-.16s-.25.02-.23.16c-.21,0-.42,0-.62.02-.07-.11-.26-.12-.29-.32h5.5c.14,0,.27.17.19.26Z"/>
      <path class="cls-1" d="M27.15,37.05c-.16-.26-.21-.51-.32-.77.46-.37,1.03-.32,1.6-.44.11.33.17.54.16.87l-1.44.34Z"/>
      <path class="cls-1" d="M29.86,23.39c-.64.13-1.42.4-1.64-.21-.07-.19.02-.41.22-.53.48-.28.99-.15,1.46.28.23-.35.31-.72.75-.74.33-.02.84-.13,1.06.3-1.21.06-1.37-.03-1.85.91Z"/>
      <path class="cls-1" d="M32.66,37.26c-.4-.39-.74-.45-1.22-.47-.24-.15-.18-.8.16-.87.32-.06.9.04,1.16.22.22.25.02.8-.1,1.12Z"/>
      <path class="cls-1" d="M24.1,38.32c-.35-.17-.4-.47-.45-.8.35-.27.72-.46,1.17-.63.25.21.36.45.48.76-.36.26-.67.45-1.19.67Z"/>
      <path class="cls-1" d="M35.86,38.32l-1.27-.63c.14-.34.26-.54.5-.79.43.13.77.36,1.13.63-.02.28-.08.51-.36.79Z"/>
      <path class="cls-1" d="M35.59,23.73c-.51-.4-.97-.69-1.66-.46.09-.66.6-.49.99-.39.26.07.74.24.67.85Z"/>
      <path class="cls-1" d="M22.29,39.48c.07.23-.34.43-.54.6-.08-.4-.16-.74-.08-1.19.23.1.53.27.63.59Z"/>
      <path class="cls-1" d="M38.17,40.08c-.28-.17-.59-.35-.58-.6s.33-.43.58-.64c.2.41.1.77,0,1.24Z"/>
      <path class="cls-1" d="M25.7,10.68c-.32.27-.53.69-1.13.85.08-.47.38-.97,1.13-.85Z"/>
      <path class="cls-6" d="M31.39,4.94c.15.09.13.34.2.46.04.38-.34.5-.55.61-.12-.34-.18-.69-.14-1.04l.48-.03Z"/>
      <path class="cls-1" d="M31.39,4.94l-.48.03c-.13-.17-.27-.34-.29-.64.49-.09.69.26.77.6Z"/>
      <path class="cls-1" d="M22.07,33.53h-.46c-.02-.14.12-.16.23-.16s.25.02.23.16Z"/>
      <path class="cls-1" d="M26.38,33.49c.08-.09-.05-.26-.19-.26h-5.5c.03.2.22.22.29.32-.03,2.2-.07,4.4.2,6.67.4,3.91,1.89,7.52,4.47,10.4l4.3-8.28,4.27,8.26c.56-.47.69-.97,1.08-1.4,1.08-1.19,1.65-2.67,2.27-4.16,1.36-3.25,1.42-7.96,1.34-11.55l-7.08-.04c0-.64.56-.4.88-.57.39-.2-.15-.77-.1-1.07.1-.53,1.04-.52,1.47-.32.48.22.56.83.71,1.49.45-.42.42-2.24-.39-2.59-1.42-.62-3.23,1.63-3.78,2.95-1.06,0-1.91.19-2.91.55-.11-.69-.73-.92-1-1.38-.3-.51.27-1.3.51-1.81.88.6.92,1.52.93,2.51.37-.21.58-.53.83-.84,1-1.24,2.2-2.13,3.67-2.81-1.64-.06-2.85.94-3.96,2.18-.36-.7-.6-1.44-1.21-1.97-1.73-1.49-3.13-1.35-3.31-1.88-.02-.05.66-1.43,1.22-1.39.04.32-.06.57.04.85.91.24,3.63-.59,3.7-.17.15.82-2.63.67-3.31.88,1.13.41,2.32.35,3.49.19,1.05-.14,0-1.47.29-2.05.15-.29,1.08-.35,1.2-.03.15.42.62,2.68,1.13,3.02.38-.26-.47-1.4.12-1.74.53-.31.99-.58,1.44-1.04.13.57-.08.94-.03,1.43.48.07.93-.13,1.17-.5.26-.38.36-.83.13-1.31-.32-.67-1.01-1.3-1.8-1.03.07.23.54.56.39.85-.29.55-1.06.8-1.65.83l-.5-1.19c-2.52-.31-1.81,1.22-5.1.92.19-1.06.98-1.64,1.87-1.98,2.36-.91,5.81-.78,7.8,1.03.05-.54-.42-.73-.49-1.22,1.69.18,1.8,3.13,3.74,2.32.63-.26.82-1.02.77-1.75-.05-.66-.37-1.28-.9-1.47-.66-.23-1.27-.08-1.67.53-.31-.92.24-1.81,1.02-2.08s1.61.04,2.15.73c.75.95.7,2.13.67,3.38.7-1.53.43-3.41-.87-4.54-.42-.36-1.05-.18-1.49-.46-1.4-.9-1.63-3.02-.54-4.28.38-.43.98-.64,1.47-.82,1.01-.37,1.95-.02,2.5.84l1.06,1.68c.23.36.78.66,1.06.24-.32-.32-.9-.61-.67-1.05.1-.19.6-.18.73-.34.19-.23.13-.6.27-1,1.1.87.91,2.4-.13,3.16s-2.44.52-3.1-.72c-.3-.56-.76-.85-1.22-1.21-.32-.25.08-.91.2-1.1-.6.09-.9.54-.95,1.09-.13,1.64,1.57,2.55,2.33,4,.61-.54,1.15-.78,1.88-.76.91.03,1.8.54,1.92,1.47-.72-.2-1.37-.4-1.94-.05-1.44.9-.99,2.73-1.82,4.52-.61,1.31-1.85,1.86-3.41,1.56,1.4,2.63,4.45,3.77,7.13,2.66,1.07-.45,1.57-1.47,1.33-2.66.76.34.9,1.12.98,1.86.45-.8.25-1.96-.6-2.46-.62-.36-1.39-.21-1.72.41-.25.46-.21,1.11.31,1.55-.63.2-1.04-.03-1.37-.39-.3-.33-.3-.72-.31-1.39-.82.2-.3,1.02-.39,1.56-.13.78-1.53.91-2.09.49,1.6-1.02.62-2.42,2.47-3.32-.39-.57-.6-1.04-.34-1.57.16-.32.45-.89.94-.81.05.57-.04.96.3,1.22.23.18.64.46,1.02.42,1.53-.17,2.54.8,2.68,2.28s-.38,2.83-1.5,3.56c-.1.06-.04.36-.16.38-.07,0-.21-.1-.31-.06-.65.23-1.31.19-1.97.64.18.5,3.46.16,1.83.82s-3.16.15-4.65-.84c.36,1.24,1.58,1.35,2.53,1.83,1.48.76,1.71,2.74,1.01,4.29,1.18-.57,1.14-2.09.82-3.33.69.27.93.97,1.09,1.62.38,1.48.06,3.01-.66,4.35-.82,1.54-2.11,4.37-.23,5.64-1.61.17-2.49-1.22-2.56-2.75-.93.15-1.18.97-1.24,1.81-.71-.56-.91-1.85-.21-2.41.52-.42,3.35-1.76,3.06-2.95-.97.92-1.95,1.62-3.14,2.12-.49.2-.89.5-1.35.73-1.05.54-1.97,1.24-2.42,2.37-.15.37-.13.75.18.99.24-.59.39-1.15.96-1.46-.04.77-.45,2.48.61,2.71.43.09.83-.13.95-.39.17-.37.09-.79-.06-1.21.91.09,1.12.78,1.16,1.48s-.59,1.16-1.19,1.51c.42.66,1.01,1.28.87,2.17-.11.68-.35,1.49-1.27,1.8.57-1.83-.8-1.66-.57-2.64.15-.67.1-1.6-.76-1.89.27.75.41,1.57-.18,2.21-.72.79-2.09.82-2.82.02.65-.13,1.27-.11,1.56-.66.73-1.35-.32-2.49-.48-4.16-1.53,3.55-4.5,6.61-7.67,8.72-2.15-1.36-3.74-3.02-5.33-4.8-.29-.33-.47-.48-.69-.88l-1.63-2.88c-.34,1.61-1.29,3.12-.34,4.22.34.39.84.3,1.39.47-.68.71-2.03.76-2.79.06-.64-.59-.53-1.64-.2-2.4-1.16.42-.62,1.61-.84,2.34s-1.06,1.3-.44,2.28c-1.04-.37-1.2-1.14-1.31-1.82-.14-.84.37-1.44.86-2.12-.49-.42-1.28-.84-1.23-1.56.05-.67.37-1.39,1.19-1.47-.15.51-.29.91,0,1.31.16.21.53.39.89.3,1.07-.25.65-1.99.39-2.91,1.03.45.92,1.49,1.36,2.32.83-2.47-2.15-4.05-3.88-4.79-1.25-.54-2.18-1.29-3.3-2.29.42,1.65,2,2.24,3.25,3.09.81.55.6,1.87-.08,2.44-.09-.85-.38-1.65-1.33-1.78,0,1.49-.93,2.94-2.51,2.75,1.61-1.01.81-3.64.09-4.99-.56-1.06-1.1-2.11-1.16-3.35-.05-1.15.07-2.42,1.15-3.21-.14,1.35-.16,2.7,1,3.42-.8-1.7-.5-3.9,1.04-4.52.91-.36,1.96-.54,2.33-1.62-1.61.85-3.16,1.35-4.75.65-.15-.06-.26-.12-.3-.19-.35-.81,1.21.2,2.29-.61-.53-.29-1.04-.29-1.48-.45-1.67-.59-2.47-2.04-2.43-3.73.09-3.67,3.56-2.55,4.32-3.51.32-.4.15-.9.15-1.48.58-.02,1.06.59,1.2,1.01.21.66-.11,1.15-.55,1.68,1.92.89.94,2.38,2.79,3.39-.65.52-2.18.52-2.41-.33-.16-.61.42-1.47-.46-1.89.04.68.02,1.26-.3,1.65-.37.44-.91.69-1.51.42.51-.44.67-1.02.41-1.54-.2-.41-.73-.69-1.29-.61-1.23.18-1.93,1.48-1.53,2.63.3-.62.32-1.37,1.11-1.59-.24,1.19.24,2.21,1.29,2.66,3.03,1.28,6.41-.11,7.86-3.06-1.95,0-3.41-1.31-3.79-3.17-.15-.75-.29-1.5-.81-2.09-.74-.86-1.78-.83-2.97-.58.98-1.48,2.95-1.69,4.42-.68.95-1.36,1.97-1.58,2.45-3.01.61.27.78.71,1.03,1.24.24-.53.12-1.09-.26-1.52-.31-.34-.83-.67-1.4-.53-1.49.37-1.5,1.8-3.19,1.81-.44,0-.73-.24-1.04-.7-.23.44-.04.75-.03,1.11-.9-.11-1.42-.76-1.56-1.37-.17-.79-.04-1.54.53-2.04.09.7.26,1.21.7,1.43,1.13.58,2.06-1.23,2.9-1.64,1.05-.51,2.27-.14,3.14.57.73.59,1.21,1.37,1.08,2.34-.09.66-.56,1.75-1.42,1.89-.98.16-1.78.43-2.26,1.38-.53,1.06-.58,2.38.16,3.41.12-.84-.16-1.53.05-2.26.33-1.11,1.17-1.82,2.32-1.84.58,0,1.1.19,1.4.57.36.46.5,1.02.29,1.56-.54-.56-1.12-.76-1.76-.55-.46.15-.85.66-.9,1.28-.07.78.28,1.49.77,1.89.61.5,1.32.55,2.18.52l-.86,1.56,1.47.75c-.32.38-.6.72-.78,1.14-.32.74-.08,1.41.65,1.96-.78.21-1.36-.26-1.69-.67-.48-.59-.39-1.21-.38-1.96-.67.29-.51,1.15-.63,1.66-.71.36-1.59.54-2.23,1.13-1.15,1.07-1.31,2.71-.42,4.09-1.14.13-1.7-.76-1.87-1.75-1.23.5-2.31,1.36-2.5,2.64-.09.64.12,1.34.78,1.39.49.04.81-.38.89-.71.11-.41.01-.74-.28-1.18.53-.12.98.22,1.24.57.3.41.23.85.2,1.35.67,0,1.16.16,1.46.52s.47.86.22,1.35c-.71-.99-1.54-.57-2.56-.23,1.64,1.15,2.26,1.05,4.11,2.57-.61-3.56-.72-6.43-.61-9.96,1.94-.11,3.8-.06,5.74-.04.39,0,.75,0,.92.47-.27.06-.51.07-.74.07ZM40.34,40.68c-.26-.58-.05-1.07.3-1.48.3-.36.91-.38,1.37-.52.06-.4-.11-1,.28-1.34.27-.24.56-.61,1.09-.49-.17.5-.3.92-.12,1.36.17.41.61.59,1,.48.33-.09.62-.43.65-.95.07-1.3-1.28-2.82-2.54-2.92-.32.68-.73,1.93-1.94,1.59.72-.89.81-1.88.4-3.03-.25-.73-1.14-1.35-1.97-1.83-.08-.5.07-1.21-.52-1.56,0,.92-.4,1.88-1.41,1.99.8-2.03-.43-2.44-.54-3.32-.07-.58.73-1.38-.06-2-.01.8-.41,1.41-1.12,1.71-.78.33-1.56.15-2.41-.07.06.48.58.46.8.72.72.88,1.89.27,2.12,2.29.06.56-.17,1.06-.07,1.63l3.79.06c.13,3.23-.03,6.37-.56,9.54-.02.13.27.17.35.12,1.67-1.35,2.52-1.29,3.74-2.35-1.27-.16-1.9-.72-2.63.39ZM30.73,51.74c.44-.09.7.44.97.19.44-.4-.16-.77-.02-1.19.13-.38.79-.13.87-.78.05-.4-.73-.26-.88-.63-.16-.4.46-.85.02-1.2-.32-.25-.69.41-1.09.15s-.15-.9-.68-.85-.28.79-.8.91c-.34.08-.7-.56-1.03-.13-.29.37.24.68.08,1.12-.14.37-.93.18-.81.78.09.46.73.28.82.62.12.48-.44.84,0,1.2.36.3.67-.4,1.07-.16s.2.85.68.86c.59.01.28-.78.79-.89Z"/>
      <path class="cls-3" d="M40.34,40.68c.73-1.11,1.36-.55,2.63-.39-1.22,1.06-2.07,1-3.74,2.35-.07.06-.37.01-.35-.12.53-3.17.69-6.31.56-9.54l-3.79-.06c-.1-.57.13-1.07.07-1.63-.23-2.01-1.4-1.41-2.12-2.29-.22-.27-.74-.24-.8-.72.85.22,1.63.4,2.41.07.72-.3,1.11-.91,1.12-1.71.8.62,0,1.42.06,2,.11.88,1.34,1.3.54,3.32,1.01-.11,1.4-1.07,1.41-1.99.59.35.45,1.06.52,1.56.83.48,1.72,1.1,1.97,1.83.4,1.15.32,2.14-.4,3.03,1.22.34,1.62-.91,1.94-1.59,1.25.1,2.6,1.61,2.54,2.92-.03.52-.32.87-.65.95-.4.11-.83-.07-1-.48-.18-.44-.06-.86.12-1.36-.52-.12-.82.25-1.09.49-.39.35-.22.94-.28,1.34-.47.14-1.07.16-1.37.52-.35.42-.56.91-.3,1.48Z"/>
      <path class="cls-3" d="M30.73,51.74c-.51.11-.2.9-.79.89-.48,0-.29-.63-.68-.86s-.71.46-1.07.16c-.43-.36.12-.71,0-1.2-.09-.35-.73-.16-.82-.62-.11-.61.67-.41.81-.78.16-.44-.37-.75-.08-1.12.33-.42.69.21,1.03.13.51-.12.27-.86.8-.91s.29.59.68.85.76-.4,1.09-.15c.44.35-.18.8-.02,1.2.14.37.92.22.88.63-.08.66-.74.4-.87.78-.15.42.45.79.02,1.19-.27.25-.53-.28-.97-.19ZM31.07,50.03c0-.62-.5-1.13-1.13-1.13s-1.13.5-1.13,1.13.5,1.13,1.13,1.13,1.13-.5,1.13-1.13Z"/>
      <circle class="cls-3" cx="29.93" cy="38.4" r=".43"/>
      <circle class="cls-1" cx="29.94" cy="50.03" r="1.13"/>
    </g>
  </g>
</svg>