<?xml version="1.0" encoding="UTF-8"?>
<svg id="Layer_1" data-name="Layer 1" xmlns="http://www.w3.org/2000/svg" viewBox="0 0 60 60">
  <defs>
    <style>
      .cls-1 {
        fill: #fff;
      }

      .cls-2 {
        fill: #101624;
      }
    </style>
  </defs>
  <path class="cls-2" d="M0,60V0h60v60H0ZM24.06,20.81c0-1.64-1.33-2.97-2.97-2.97s-2.97,1.33-2.97,2.97,1.33,2.97,2.97,2.97,2.97-1.33,2.97-2.97ZM38.45,40.35l.53,1.6,4.75-.16v-23.08s-5.46,0-5.46,0l-.1,8.29c-3.84-2.75-8.85-1.45-10.81,2.72-1.41,2.98-1.27,6.53.49,9.31,2.36,3.73,7.55,4.43,10.6,1.32ZM23.86,41.88l.02-15.85h-5.55s0,15.85,0,15.85h5.53Z"/>
  <g>
    <g>
      <path class="cls-1" d="M38.45,40.35c-3.06,3.11-8.24,2.41-10.6-1.32-1.76-2.78-1.9-6.33-.49-9.31,1.97-4.16,6.97-5.46,10.81-2.72l.1-8.29h5.46s0,23.07,0,23.07l-4.75.16-.53-1.6ZM38.41,33.93c0-1.85-1.5-3.35-3.35-3.35s-3.35,1.5-3.35,3.35,1.5,3.35,3.35,3.35,3.35-1.5,3.35-3.35Z"/>
      <circle class="cls-2" cx="35.05" cy="33.93" r="3.35"/>
    </g>
    <g>
      <polygon class="cls-1" points="23.86 41.88 18.33 41.87 18.32 26.03 23.88 26.02 23.86 41.88"/>
      <circle class="cls-1" cx="21.09" cy="20.81" r="2.97"/>
    </g>
  </g>
</svg>