<?xml version="1.0" encoding="UTF-8"?>
<svg id="Layer_1" data-name="Layer 1" xmlns="http://www.w3.org/2000/svg" viewBox="0 0 60 60">
  <defs>
    <style>
      .cls-1 {
        fill: #fca310;
      }

      .cls-2 {
        fill: #fdd81c;
      }

      .cls-3 {
        fill: #fefdfc;
      }
    </style>
  </defs>
  <path class="cls-3" d="M0,60V0h60v60H0ZM43.46,22.45c-3.37-7.96-11.59-12.5-19.78-11.41-11.2,1.49-18.43,11.81-16.38,22.64,2,10.56,12.75,17.78,23.6,14.78-4.82-5.14-5.82-11.86-2.85-17.76,2.78-5.53,8.6-8.68,15.41-8.25ZM53.01,37.59c0-6.37-5.17-11.54-11.54-11.54s-11.54,5.17-11.54,11.54,5.17,11.54,11.54,11.54,11.54-5.17,11.54-11.54Z"/>
  <path class="cls-1" d="M43.46,22.45c-6.81-.43-12.63,2.72-15.41,8.25-2.97,5.9-1.96,12.62,2.85,17.76-10.85,3-21.6-4.22-23.6-14.78-2.06-10.84,5.18-21.15,16.38-22.64,8.19-1.09,16.4,3.45,19.78,11.41Z"/>
  <circle class="cls-2" cx="41.47" cy="37.59" r="11.54"/>
</svg>