<?xml version="1.0" encoding="UTF-8"?>
<svg id="Layer_1" data-name="Layer 1" xmlns="http://www.w3.org/2000/svg" xmlns:xlink="http://www.w3.org/1999/xlink" viewBox="0 0 60 60">
  <defs>
    <style>
      .cls-1 {
        fill: #fff;
      }

      .cls-2, .cls-3 {
        fill: none;
      }

      .cls-4 {
        clip-path: url(#clippath-1);
      }

      .cls-5 {
        clip-path: url(#clippath-3);
      }

      .cls-3 {
        stroke: #000;
        stroke-miterlimit: 10;
        stroke-width: .1px;
      }

      .cls-6 {
        fill: #1d1d1b;
      }

      .cls-7 {
        clip-path: url(#clippath-2);
      }

      .cls-8 {
        clip-path: url(#clippath);
      }
    </style>
    <clipPath id="clippath">
      <rect class="cls-2" x="3.27" y="22.07" width="53.46" height="11.84"/>
    </clipPath>
    <clipPath id="clippath-1">
      <rect class="cls-2" x="3.27" y="22.07" width="53.46" height="11.84"/>
    </clipPath>
    <clipPath id="clippath-2">
      <rect class="cls-2" x="3.27" y="22.07" width="53.46" height="11.84"/>
    </clipPath>
    <clipPath id="clippath-3">
      <rect class="cls-2" x="3.27" y="22.07" width="53.46" height="11.84"/>
    </clipPath>
  </defs>
  <rect class="cls-1" width="60" height="60"/>
  <g class="cls-8">
    <path class="cls-6" d="M4.04,33.72c-.24-.06-.47-.16-.69-.29-.02-.01-.03-.04-.02-.07l.32-.72s.04-.04.07-.03c0,0,0,0,0,0,.17.11.36.19.55.25.22.07.45.11.68.11.42,0,.63-.11.63-.32,0-.11-.07-.22-.18-.25-.19-.08-.38-.13-.58-.17-.25-.05-.49-.12-.73-.21-.2-.07-.37-.19-.51-.35-.14-.16-.21-.38-.21-.65,0-.23.07-.46.2-.65.15-.21.35-.36.58-.46.3-.12.62-.18.95-.17.25,0,.51.03.75.09.21.05.42.13.61.23.02.01.03.04.02.07l-.3.73s-.04.04-.07.03c0,0,0,0,0,0-.31-.17-.67-.27-1.03-.28-.22,0-.38.03-.48.1-.09.05-.15.15-.15.26,0,.1.06.18.18.24.19.07.38.13.57.16.25.05.5.12.74.21.19.07.37.19.51.35.14.16.21.38.21.65,0,.23-.07.45-.19.64-.15.21-.35.36-.58.46-.3.12-.62.18-.95.17-.31,0-.62-.04-.92-.12"/>
    <path class="cls-2" d="M4.04,33.72c-.24-.06-.47-.16-.69-.29-.02-.01-.03-.04-.02-.07l.32-.72s.04-.04.07-.03c0,0,0,0,0,0,.17.11.36.19.55.25.22.07.45.11.68.11.42,0,.63-.11.63-.32,0-.11-.07-.22-.18-.25-.19-.08-.38-.13-.58-.17-.25-.05-.49-.12-.73-.21-.2-.07-.37-.19-.51-.35-.14-.16-.21-.38-.21-.65,0-.23.07-.46.2-.65.15-.21.35-.36.58-.46.3-.12.62-.18.95-.17.25,0,.51.03.75.09.21.05.42.13.61.23.02.01.03.04.02.07l-.3.73s-.04.04-.07.03c0,0,0,0,0,0-.31-.17-.67-.27-1.03-.28-.22,0-.38.03-.48.1-.09.05-.15.15-.15.26,0,.1.06.18.18.24.19.07.38.13.57.16.25.05.5.12.74.21.19.07.37.19.51.35.14.16.21.38.21.65,0,.23-.07.45-.19.64-.15.21-.35.36-.58.46-.3.12-.62.18-.95.17-.31,0-.62-.04-.92-.12"/>
    <path class="cls-6" d="M10.72,30.71h-1.14s-.05-.02-.05-.05v-.77s.02-.05.05-.05h3.38s.05.02.05.05h0v.78s-.02.05-.05.05h-1.14v3s-.02.05-.05.05h-.99s-.05-.02-.05-.05h0s0-3,0-3Z"/>
    <path class="cls-2" d="M10.72,30.71h-1.14s-.05-.02-.05-.05v-.77s.02-.05.05-.05h3.38s.05.02.05.05h0v.78s-.02.05-.05.05h-1.14v3s-.02.05-.05.05h-.99s-.05-.02-.05-.05h0s0-3,0-3Z"/>
    <path class="cls-6" d="M18.18,32.35v1.35s-.02.05-.05.05h-1s-.05-.02-.05-.05v-1.37l-1.44-2.42s0-.06.02-.07c0,0,.02,0,.03,0h1.04s.04,0,.05.03l.91,1.54.91-1.54s.03-.03.05-.03h.95s.05.02.05.05c0,0,0,.02,0,.03l-1.44,2.44Z"/>
    <path class="cls-2" d="M18.18,32.35v1.35s-.02.05-.05.05h-1s-.05-.02-.05-.05v-1.37l-1.44-2.42s0-.06.02-.07c0,0,.02,0,.03,0h1.04s.04,0,.05.03l.91,1.54.91-1.54s.03-.03.05-.03h.95s.05.02.05.05c0,0,0,.02,0,.03l-1.44,2.44Z"/>
    <path class="cls-6" d="M22.77,29.83h.99s.05.02.05.05h0v3h1.79s.05.02.05.05v.77s-.02.05-.05.05h-2.89v-3.88s.02-.05.05-.05h0"/>
    <path class="cls-2" d="M22.77,29.83h.99s.05.02.05.05h0v3h1.79s.05.02.05.05v.77s-.02.05-.05.05h-2.89v-3.88s.02-.05.05-.05h0"/>
    <path class="cls-6" d="M27.93,24.36c-.46-.62-.33-1.49.29-1.96.62-.46,1.49-.33,1.96.29.37.5.37,1.18,0,1.67"/>
    <path class="cls-2" d="M27.93,24.36c-.46-.62-.33-1.49.29-1.96.62-.46,1.49-.33,1.96.29.37.5.37,1.18,0,1.67"/>
    <path class="cls-6" d="M27.92,24.35s.44.56.44.98h1.37c0-.42.44-.98.44-.98"/>
    <path class="cls-2" d="M27.92,24.35s.44.56.44.98h1.37c0-.42.44-.98.44-.98"/>
  </g>
  <line class="cls-3" x1="28.46" y1="26.2" x2="29.63" y2="26.2"/>
  <line class="cls-3" x1="28.46" y1="25.74" x2="29.63" y2="25.74"/>
  <polygon class="cls-6" points="28.79 26.58 28.94 26.71 29.16 26.71 29.31 26.58 28.79 26.58"/>
  <polygon class="cls-2" points="28.79 26.58 28.94 26.71 29.16 26.71 29.31 26.58 28.79 26.58"/>
  <rect class="cls-6" x="28.86" y="29.78" width=".3" height="3.9"/>
  <g class="cls-4">
    <rect class="cls-2" x="28.86" y="29.78" width=".3" height="3.9"/>
    <path class="cls-6" d="M34.88,33.32c1.03,0,1.7-.66,1.7-1.59s-.67-1.59-1.7-1.59h-1.15v3.18h1.15ZM33.32,29.78h1.58c1.24,0,2.08.8,2.08,1.95s-.84,1.95-2.08,1.95h-1.58v-3.9Z"/>
    <path class="cls-2" d="M34.88,33.32c1.03,0,1.7-.66,1.7-1.59s-.67-1.59-1.7-1.59h-1.15v3.18h1.15ZM33.32,29.78h1.58c1.24,0,2.08.8,2.08,1.95s-.84,1.95-2.08,1.95h-1.58v-3.9Z"/>
  </g>
  <polygon class="cls-6" points="43.5 33.32 43.5 33.68 40.78 33.68 40.78 29.78 43.42 29.78 43.42 30.14 41.19 30.14 41.19 31.52 43.18 31.52 43.18 31.87 41.19 31.87 41.19 33.32 43.5 33.32"/>
  <g class="cls-7">
    <polygon class="cls-2" points="43.5 33.32 43.5 33.68 40.78 33.68 40.78 29.78 43.42 29.78 43.42 30.14 41.19 30.14 41.19 31.52 43.18 31.52 43.18 31.87 41.19 31.87 41.19 33.32 43.5 33.32"/>
  </g>
  <path class="cls-6" d="M49.61,32.3l-.92-2.09-.92,2.09h1.84ZM49.75,32.64h-2.14l-.46,1.04h-.42l1.75-3.9h.4l1.75,3.9h-.43l-.46-1.04Z"/>
  <g class="cls-5">
    <path class="cls-2" d="M49.61,32.3l-.92-2.09-.92,2.09h1.84ZM49.75,32.64h-2.14l-.46,1.04h-.42l1.75-3.9h.4l1.75,3.9h-.43l-.46-1.04Z"/>
    <path class="cls-6" d="M53.81,33.21l.16-.32c.27.27.76.47,1.27.47.72,0,1.03-.31,1.03-.69,0-1.07-2.36-.41-2.36-1.85,0-.57.44-1.07,1.41-1.07.43,0,.88.13,1.19.35l-.14.33c-.31-.21-.68-.32-1.05-.32-.7,0-1.01.32-1.01.71,0,1.07,2.36.42,2.36,1.84,0,.57-.45,1.07-1.43,1.07-.58,0-1.14-.21-1.43-.51"/>
    <path class="cls-2" d="M53.81,33.21l.16-.32c.27.27.76.47,1.27.47.72,0,1.03-.31,1.03-.69,0-1.07-2.36-.41-2.36-1.85,0-.57.44-1.07,1.41-1.07.43,0,.88.13,1.19.35l-.14.33c-.31-.21-.68-.32-1.05-.32-.7,0-1.01.32-1.01.71,0,1.07,2.36.42,2.36,1.84,0,.57-.45,1.07-1.43,1.07-.58,0-1.14-.21-1.43-.51Z"/>
  </g>
</svg>