<?xml version="1.0" encoding="UTF-8"?>
<svg id="Layer_1" data-name="Layer 1" xmlns="http://www.w3.org/2000/svg" viewBox="0 0 60 60">
  <defs>
    <style>
      .cls-1 {
        fill: #fff;
      }
    </style>
  </defs>
  <path d="M0,60V0h60v60H0ZM47.77,32.23l-.14-4.63c-9.65-2.59-17.96-7.44-25.05-14.47l-4,2.36c2.56,9.71,2.54,19.23,0,28.93l3.98,2.36c7.09-7.05,15.5-11.88,25.21-14.55ZM39.81,17.58c0-1.68-1.36-3.05-3.05-3.05s-3.05,1.36-3.05,3.05,1.36,3.05,3.05,3.05,3.05-1.36,3.05-3.05ZM18.38,29.95c0-1.68-1.36-3.05-3.05-3.05s-3.05,1.36-3.05,3.05,1.36,3.05,3.05,3.05,3.05-1.36,3.05-3.05ZM39.81,42.32c0-1.68-1.36-3.05-3.05-3.05s-3.05,1.36-3.05,3.05,1.36,3.05,3.05,3.05,3.05-1.36,3.05-3.05Z"/>
  <path class="cls-1" d="M47.77,32.23c-9.7,2.67-18.11,7.5-25.21,14.55l-3.98-2.36c2.54-9.69,2.56-19.22,0-28.93l4-2.36c7.09,7.02,15.4,11.87,25.05,14.47l.14,4.63ZM39.58,29.93c-5.71-2.38-10.37-5.05-14.98-8.71.81,5.96.85,11.37-.01,17.45,4.7-3.71,9.64-6.44,14.99-8.74Z"/>
  <circle class="cls-1" cx="36.76" cy="17.58" r="3.05"/>
  <circle class="cls-1" cx="15.34" cy="29.95" r="3.05"/>
  <circle class="cls-1" cx="36.76" cy="42.32" r="3.05"/>
  <path d="M39.58,29.93c-5.36,2.3-10.3,5.03-14.99,8.74.86-6.08.82-11.49.01-17.45,4.61,3.67,9.27,6.34,14.98,8.71Z"/>
</svg>