<?xml version="1.0" encoding="UTF-8"?>
<svg id="Layer_1" xmlns="http://www.w3.org/2000/svg" version="1.1" viewBox="0 0 128 128">
  <!-- Generator: Adobe Illustrator 29.6.1, SVG Export Plug-In . SVG Version: 2.1.1 Build 9)  -->
  <polygon points="16.21 19.9 0 19.9 0 99.07 50.38 99.07 50.38 85.64 16.21 85.64 16.21 19.9"/>
  <path d="M123.34,38.27c-3.08-5.9-7.48-10.44-13.2-13.59-5.72-3.15-12.56-4.75-20.49-4.75h-28.11v79.17h27.85c8.04,0,14.94-1.58,20.7-4.75,5.76-3.18,10.18-7.71,13.27-13.62,3.08-5.93,4.63-13.01,4.63-21.26s-1.55-15.29-4.63-21.17l-.02-.02ZM109.21,74c-1.74,3.79-4.33,6.59-7.79,8.4-3.46,1.81-7.74,2.7-12.84,2.7h-10.84v-51.23h10.94c5.06,0,9.31.89,12.72,2.7,3.41,1.81,6,4.59,7.76,8.37,1.76,3.79,2.63,8.61,2.63,14.49s-.87,10.77-2.61,14.56h.02Z"/>
</svg>