<?xml version="1.0" encoding="UTF-8"?>
<svg id="Layer_1" data-name="Layer 1" xmlns="http://www.w3.org/2000/svg" viewBox="0 0 1024 1024">
  <defs>
    <style>
      .cls-1 {
        fill: #fff;
      }

      .cls-2 {
        fill: #275787;
      }

      .cls-3 {
        fill: #e87400;
      }

      .cls-4 {
        fill: #fdfcfc;
      }
    </style>
  </defs>
  <rect class="cls-1" x="1.44" y="1.19" width="1021.62" height="1021.62" rx="18.33" ry="18.33"/>
  <g>
    <path class="cls-3" d="M606.34,301.82c-.48-1.94-2.52-3.38-3.97-4.67-32.94-29.38-74.55-55.62-106.09-85.7-41.72-39.78,31.12-79.16,66.55-55.55l287.19,220.56c134,118.9,122.6,312.51-22.47,416.16-141.72,101.26-357.94,67.45-448.85-84.75-23.2-38.84-39.49-88.72-31.75-134.09-1.11-1.14-10.15,6.61-11.75,7.89-48.2,38.54-94.45,79.93-143.13,117.82-16.33,12.71-31.61,26.35-53.44,28.31-64.22,5.76-74.89-61.2-33.03-97.48,104.21-81.11,210.25-160,313.66-242.05h-183.14c-5.71,0-21.05-9.52-25.03-14.27-19.73-23.61.99-54.17,24.27-65.08,4.05-1.9,19.16-7.1,22.76-7.1h348.2ZM507.86,442.28c-109.16,109.16-18.59,270.59,124.36,277.76,120.22,6.03,229.92-101.65,182.39-223.26-46.89-119.97-218.26-142.99-306.75-54.49Z"/>
    <g>
      <path class="cls-4" d="M507.86,442.28c88.49-88.49,259.86-65.47,306.75,54.49,47.53,121.61-62.17,229.3-182.39,223.26-142.95-7.17-233.52-168.59-124.36-277.76ZM629.6,443.77c-75.98,7.75-127.89,91.82-83.35,159.45,50.89,77.26,184.09,65.72,212.63-23.88,26.34-82.68-51.25-143.53-129.28-135.57Z"/>
      <path class="cls-2" d="M629.6,443.77c78.04-7.96,155.62,52.88,129.28,135.57-28.54,89.6-161.74,101.15-212.63,23.88-44.55-67.63,7.37-151.7,83.35-159.45Z"/>
    </g>
  </g>
</svg>