<?xml version="1.0" encoding="UTF-8"?>
<svg id="Layer_1" data-name="Layer 1" xmlns="http://www.w3.org/2000/svg" viewBox="0 0 1024 1024">
  <defs>
    <style>
      .cls-1 {
        fill: #1abbfd;
      }

      .cls-2 {
        fill: #2d3038;
      }

      .cls-3 {
        fill: #f14e1e;
      }

      .cls-4 {
        fill: #0ace82;
      }

      .cls-5 {
        fill: #fe7162;
      }

      .cls-6 {
        fill: #a159fe;
      }
    </style>
  </defs>
  <rect class="cls-2" x="1.24" y="1.19" width="1021.62" height="1021.62" rx="18.33" ry="18.33"/>
  <g>
    <path class="cls-3" d="M528.93,188.54v216c-37.04,0-81.98-3.07-118,0-49.19-5.71-88.52-41.64-96.72-90.78-10.33-61.83,36.61-121.07,99.18-125.26,36.41-2.44,78.48.04,115.54.04Z"/>
    <path class="cls-5" d="M646.93,404.54c-5.44-.47-14.57-.48-20,0h-98v-216c37.06,0,79.13-2.48,115.54-.04,39.71,2.66,76.14,29.05,91.63,65.37,29.18,68.39-16.58,142.62-89.17,150.67Z"/>
    <path class="cls-6" d="M528.93,404.54c0,29.81-.39,59.7-.02,89.51.02,1.69-.64,4.45,1.02,5.49-1.19,9.87-1.18,16.07,0,26-1.66,1.04-1,3.79-1.02,5.49-.37,29.81,0,59.7.02,89.51h-118l-22.52-4.98c-112.17-34.92-92.69-201.21,22.52-211.02,36.02-3.07,80.96,0,118,0Z"/>
    <path class="cls-4" d="M528.93,620.54c0,37.19,2.51,78.9-.01,115.49-6.02,87.46-109.66,131.76-177.46,75.48-74.98-62.24-34.97-180.92,59.47-190.97h118Z"/>
    <path class="cls-1" d="M646.93,404.54c86.92,7.46,129.12,113.5,71.03,179.53-61.36,69.74-177.07,33.56-188.03-58.53-1.18-9.93-1.19-16.13,0-26,5.97-49.42,46.86-90.57,97-95,5.43-.48,14.56-.47,20,0Z"/>
  </g>
</svg>