<?xml version="1.0" encoding="UTF-8"?>
<svg id="Layer_1" data-name="Layer 1" xmlns="http://www.w3.org/2000/svg" viewBox="0 0 1024 1024">
  <defs>
    <style>
      .cls-1 {
        fill: #fff;
      }

      .cls-2 {
        fill: #629c4d;
      }
    </style>
  </defs>
  <rect class="cls-2" x="1.24" y="1.19" width="1021.62" height="1021.62" rx="18.33" ry="18.33"/>
  <path class="cls-1" d="M715.95,291.53c1.2-.99,4.55-6.78,6.31-8.71,19.83-21.78,60.29-47.34,88.34-56.27,4.75-1.51,21.43-7.29,18.34,2.89-1.15,3.8-5.44,1.17-8.27,1.42-15.48,1.34-56.81,26.33-70.28,36.21-8.49,6.23-15.25,13.47-23.26,19.8-5.61,4.43-12.07,4.25-9.5,12.79,4.01,13.35,17.08,17.28,13.8,35.37-1.72,9.49-26.2,13.37-26.98,24.04-.65,8.88,16.87,19.38,24.56,21.01,6.16,1.31,12.23-.51,18.39.3,4.24.56,10.88,5.25,13.83,4.83,2.34-.33,5.78-6.17,12.44-7.13,6.96-1,19.17,1.23,24.8-.38,3.86-1.11,2.52-6.21,4.02-7.76,4.65-4.82,17.81,8.9,14.51,13.26-3.8,5.02-14.21,1.32-19.36,3.41-2.32.94-3.16,3.84-3.62,4.09-1.07.59-2.87-.24-3.78.29-.43.25-2.85,7.14-4.54,8.86-3.73,3.79-20.71,2.81-25.82,1.35-5.82-1.67-11.14-6.91-16.58-9.42-10.83-5-37.72-7.86-49.27-5.59-6.23,1.22-11.1,8.01-11.9,14.1-.73,5.49.31,14.42.75,20.23,2.25,29.87,7.76,58.08,5.71,88.59-.26,3.83-2.31,7.34-1.55,11.24.46,1.32,3.64,1.8,5.18,2.94,14.08,10.49,27.2,28.17,42.59,40.28,5.87,4.62,4.46,7.52,6.74,13.57,1.67,4.43,5.46,8.93,8.73,12.39,4.71,5,24.57,19.45,20.77,27.19-4.47,3.57-10.48,1.78-14.27-2-16.4-16.39-31.71-40.19-47.49-58.12-10.63-12.07-39.73-37.22-42.3-51.94-2.94-16.88,11.67-38.17,4.43-54.8-4.88-11.23-15.27-3.75-19.57,3.83-7.85,13.85-11.28,27.55-21.12,41.43-11.32,15.97-49.36,56.36-66.49,63.5-2,.84-4.47.83-6.48,1.65-8.33,3.39-43.73,33.01-52.01,40.6-2.6,2.38-8.77,8.04-10.41,10.71-3.23,5.25-1.53,13.47-7.03,18.15-6.77,5.76-20.35,2.97-23.99,6.88l-68.61,143.42c-2.79,4.76-5.53,9.53-8.69,14.06-5.19,7.44-10.87,9.42-4.77,20.46-.19,2.25-8.62.05-10.08,2.87-3.14,6.15-6.94,11.92-10.83,17.61-5.84,8.57-17.2,27.66-23.71,33.97-4.73,4.59-15.63,9.01-19.36,1.37-2.27-4.64,3.9-5.61,7.17-8.69,6.59-6.21,31.13-42.87,34.77-51.34,3.07-7.16.37-12.98,10.67-15.33,24.1-47.49,53.51-94.28,74.1-143.62,4.43-10.62,9.31-30.85,17-38.24,6.41-6.16,11.51-5.19,18.51-8.3,35.08-15.59,64.38-60.91,95.69-83.04,15.91-11.25,39.38-17.85,38.44-42.38l-6.08,10.57c-20.1,20.58-49.52,26.1-71.48,43.88-10.7,8.66-17.28,17.01-31.48,21.33-9.75,2.97-30.95,3.25-41.62,3.05-5.78-.11-9.06-3.12-10-8.75-2.59-15.45,4.8-14.17,14-22.17,9.85-8.57,6.59-9.04,8.76-20.49,3.56-18.84,12-19.62,21.1-32.52,4.18-5.92,4.83-12.52,8.9-18.72,7.37-11.23,19.61-18.18,29.1-27.36-3.23.55-6.26-.69-9.31-.85-31.56-1.71-63.54,3.87-95.05,4.94-15.3.52-33.14-1.51-47.96-.03-5.7.57-11.88,4.1-17.14,4.8-8.18,1.09-13.6-1.81-21.71,2.66-10.56,5.82-16.9,18.13-26.18,25.82-7.69,6.36-17.94,11.58-26.29,17.58-13.95,10.02-26.51,21.76-40.15,32.15-6.47,2.82-15.88,0-22.87-.19-9.24-.24-19.8,1.12-28.41.79-7.11-.27-11.88-8.62-2.52-9.71,10.82-1.26,22.94,3.24,34.09,1.59,28.53-18.18,68.48-37.12,91.05-62.49,5.55-6.24,15.43-23.75,21.31-26.62,11.95-5.83,34.35-1.26,47.7-.98,28.63.61,64.66.88,92.07-7.11,3.66-1.07,7.47-3.18,11.19-4.24,18.71-5.35,41.48-3.75,60.87-3.29,2.38.06,5.05,1.95,7.37.03l54.78-63.01c5.09-5.89,23.5-6.96,26.71-13.09,1.97-3.76.43-6.1-.69-9.66-1.98-6.29-10.83-18.44-11.23-22.94-.27-3,3.88-7.21,6.82-7.51,3.37-.34,7.89,2.82,10.47,4.88,3.25,2.6,5.7,7.77,10.17,7.29.6-.58-1.39-7.04-2.07-8.08-2.05-3.13-6.69-1.85-6.95-7.74-.45-10.18,13.12-10.52,13.87.09.26,3.72-2.91,4.12-3.23,7.28-.49,4.87,4.11,10.8,9.24,10.96,2.6-4.79-1.71-9.46,2.57-14.65,5.63-6.82,17.94.6,23.7.59,1.12,0,1.71-.56,2.26-1.45,1.49-4.95-.25-10.26-.44-14.99-.86-21.75-1.93-43.44-3.21-65.03-.91-15.31-.11-46.87-5.91-59.89-1.69-3.79-7.48-8.52-3.36-12.77,5.29,1.38,13.72,7.89,14.76,13.56,1.2,6.57-.14,16.33.16,23.4.85,20.48,2.43,41.14,3.32,61.68.76,17.66-.17,38.03,1.59,55.28.54,5.27,4.57,7.66,8.71,4.24Z"/>
</svg>