<?xml version="1.0" encoding="UTF-8"?>
<svg id="Layer_1" data-name="Layer 1" xmlns="http://www.w3.org/2000/svg" viewBox="0 0 1024 1024">
  <defs>
    <style>
      .cls-1 {
        fill: #2d0402;
      }

      .cls-2 {
        fill: #ff9a02;
      }
    </style>
  </defs>
  <rect class="cls-1" x=".1" y=".05" width="1023.9" height="1023.9" rx="18.33" ry="18.33"/>
  <g>
    <path class="cls-2" d="M346.66,644.48l-40.17,129.78c-1.54,3.86-3.86,5.41-7.73,5.41h-74.16c-4.63,0-6.18-2.32-4.63-6.95l147.55-451.92c3.09-7.73,5.41-15.45,6.18-40.17,0-3.09,1.54-5.4,4.63-5.4h103.52c3.09,0,4.63.76,5.4,4.63l166.09,493.64c.77,3.86,0,6.19-4.63,6.19h-82.66c-3.86,0-5.41-1.55-6.95-4.64l-42.49-130.56h-169.96ZM494.21,563.36c-14.67-51.76-49.44-157.59-62.57-212.44h-.77c-12.36,51.76-40.17,141.37-61.8,212.44h125.15Z"/>
    <path class="cls-2" d="M702.74,295.3c0-30.9,21.63-50.99,50.99-50.99,31.67,0,50.99,20.86,50.99,50.99,0,31.67-20.86,50.98-51.76,50.98s-50.21-20.08-50.21-50.98ZM708.15,404.23c0-3.86,1.54-5.4,6.18-5.4h78.03c4.63,0,6.18.76,6.18,5.4v369.26c0,4.64-1.55,6.19-6.18,6.19h-77.25c-4.64,0-6.95-2.32-6.95-6.19v-369.26Z"/>
  </g>
</svg>