<?xml version="1.0" encoding="UTF-8"?>
<svg id="Layer_1" data-name="Layer 1" xmlns="http://www.w3.org/2000/svg" viewBox="0 0 1024 1024">
  <defs>
    <style>
      .cls-1 {
        fill: #43091f;
      }

      .cls-2 {
        fill: #e94869;
      }
    </style>
  </defs>
  <rect class="cls-1" width="1024" height="1024" rx="18.33" ry="18.33"/>
  <g>
    <path class="cls-2" d="M374.15,774.3c0,5.4-1.54,6.95-6.18,6.95h-77.26c-4.63,0-6.18-2.32-6.18-6.95v-491.37c0-4.64,1.54-6.18,6.18-6.18h78.03c3.86,0,5.41,1.54,5.41,6.18v491.37Z"/>
    <path class="cls-2" d="M448.3,594.28c0-112.03,79.58-200.87,208.6-200.87,10.05,0,17.77,0,29.36,1.54v-154.52c0-3.09,1.54-4.64,4.63-4.64h81.12c3.09,0,3.86,1.55,3.86,3.86v465.1c0,14.68.77,32.45,2.32,48.68,0,3.09-.77,4.63-3.86,6.18-46.36,20.86-92.71,28.59-135.98,28.59-108.93,0-190.06-64.13-190.06-193.92ZM686.26,473.76c-8.5-3.09-19.31-4.64-32.45-4.64-64.9,0-113.57,44.81-113.57,120.53,0,85.76,47.9,120.53,105.84,120.53,13.91,0,28.59-.77,40.18-5.41v-231Z"/>
  </g>
</svg>