<?xml version="1.0" encoding="UTF-8"?>
<svg id="Layer_1" data-name="Layer 1" xmlns="http://www.w3.org/2000/svg" viewBox="0 0 1024 1024">
  <defs>
    <style>
      .cls-1 {
        fill: #fff;
      }

      .cls-2 {
        fill: #21303f;
      }
    </style>
  </defs>
  <rect class="cls-2" x="1.24" y="1.19" width="1021.62" height="1021.62" rx="18.33" ry="18.33"/>
  <g>
    <path class="cls-1" d="M649.78,243.85c2.31,24.09,4.52,48.42,9.18,72.21.8,4.1.66,5.47-4.03,3.99l-204.09-96.57c3.99-10.65,56.96-14.1,68.95-13.86,21.7.44,54.59,7.22,75.91,13.15,18.88,5.26,36.47,12.79,54.09,21.08Z"/>
    <path class="cls-1" d="M748.47,544.09l-21.48-227.04c5.34-.48,9.42-.47,14,2.85,5.53,3.99,28.99,40.88,33.61,49.24,20.99,38.03,37.91,88.41,33.67,131.98l-59.8,42.97Z"/>
    <path class="cls-1" d="M291.22,706.73c-8.2,1.53-10.57-3.01-15.25-7.73-24.4-24.65-48.72-77.78-57.51-111.27-3.36-12.81-14.17-57.84-6.94-66.59,10.29-12.45,43.89-28.32,56.72-41.45l22.98,227.04Z"/>
    <path class="cls-1" d="M601.17,737.39l187.14-134.98c5.59,12.1-.88,21.32-5.56,32.75-14.02,34.19-42.39,74.13-69.5,99.28-7.73,7.17-36.46,31.43-45.36,30.06-18.45-2.84-46.06-24.72-66.72-27.11Z"/>
    <path class="cls-1" d="M229.89,418.28c-6.79-5.07,12.91-44.86,16.79-52.21,11.32-21.43,30.73-48.54,47.55-65.99,10.29-10.68,45.38-43.13,59.11-40.82,4.43.75,63.78,25.13,63.65,28.62l-187.1,130.4Z"/>
    <path class="cls-1" d="M567.4,795.77c7.89,10.58-33.68,15.08-38.23,15.42-52.83,4.02-112.14-6.98-158.16-33.09l-9.18-74.41,205.57,92.09Z"/>
  </g>
</svg>