<?xml version="1.0" encoding="UTF-8"?>
<svg id="Layer_1" data-name="Layer 1" xmlns="http://www.w3.org/2000/svg" viewBox="0 0 1024 1024">
  <defs>
    <style>
      .cls-1 {
        fill: #30a8ff;
      }

      .cls-2 {
        fill: #001e36;
      }
    </style>
  </defs>
  <rect class="cls-2" x="0" width="1024" height="1024" rx="18.33" ry="18.33"/>
  <g>
    <path class="cls-1" d="M220.02,260.52c0-3.86.77-6.19,4.63-6.19,29.36-.76,81.9-2.31,133.66-2.31,141.38,0,197.78,79.57,197.78,166.11,0,119.75-91.17,173.84-203.19,173.84-21.63,0-28.59-.77-44.04-.77v161.47c0,3.86-1.54,5.41-5.41,5.41h-78.03c-3.86,0-5.41-1.55-5.41-5.41v-492.13ZM308.87,511.62c12.36.76,21.63.76,44.04.76,61.03,0,114.34-21.63,114.34-92.7,0-56.4-38.63-88.85-105.84-88.85-23.95,0-44.04.76-52.54,1.54v179.25Z"/>
    <path class="cls-1" d="M743.79,443.63c-39.4,0-52.54,17-52.54,33.22s10.04,28.59,59.49,51c81.9,33.23,109.71,67.99,109.71,120.53,0,73.39-57.94,116.66-145.24,116.66-44.04,0-81.13-7.73-103.53-20.09-3.86-2.31-4.63-4.63-4.63-8.49v-71.85c0-3.86,2.31-5.4,5.41-3.09,32.45,20.08,71.07,29.36,103.53,29.36,39.4,0,57.17-14.68,57.17-35.54,0-17.77-13.14-31.68-61.04-52.54-76.48-31.68-105.07-65.68-105.07-120.53,0-59.49,47.13-112.02,137.52-112.02,42.49,0,74.17,6.18,91.94,14.67,3.86,2.32,3.86,5.41,3.86,9.28v65.67c0,4.64-2.32,6.95-6.95,4.64-22.41-12.37-57.17-20.86-89.62-20.86Z"/>
  </g>
</svg>