<?xml version="1.0" encoding="UTF-8"?>
<svg id="Layer_1" data-name="Layer 1" xmlns="http://www.w3.org/2000/svg" viewBox="0 0 1024 1024">
  <defs>
    <style>
      .cls-1 {
        fill: #fff;
      }
    </style>
  </defs>
  <rect x="1.24" y="1.19" width="1021.62" height="1021.62" rx="18.33" ry="18.33"/>
  <g>
    <path class="cls-1" d="M437.34,679.12c-8.95,9.33-30.23-34.75-34.23-40.44-53.46-76.07-115.15-130.77-215.16-121.56-22.59,2.08-54.71,23.87-55.79-14.47-.31-11.13,13.68-73.07,21.28-78,14.1-4.08,32.32-4,47.11-2.85,18.55,1.44,38.8,10.56,54.94,12.09,3.93.37,5.93,1.33,8.68-2.56,2.38-3.36,10.44-45.44,11.05-52.53,2.59-29.9,1.43-69.35-11.08-96.86-4.67-10.27-29.11-35.54-19.94-43.76,34.04-6.73,107.3-41.62,139.31-31.11,12.52,4.11,18.91,31.12,20.62,42.93,11.03,76.16-32.01,155.5-73.6,216.07-1.68,6.5,27.8,30.38,36.87,24.19,51.49-53.37,77.22-118.75,88.54-191.3,2.29-14.69,1.28-33.99,3.62-47.22.64-3.62,1.27-6.43,5.2-7.69,16.44-5.26,59.33,43.67,69.2,57.22,20.92,28.72,55.37,95.24,41.64,130.08-14.21,36.04-137.71,87.85-176.39,98.49-3.69,5.26,11.38,22.15,14.4,28.41,5.47,11.35,23.7,58.68,23.7,68.45v52.43Z"/>
    <path class="cls-1" d="M675.76,768.24c20.54-8.54,28.25-.83,33.26,18.95,32.32-46.06-48.47-93.67-49.28-25.45l-15.86-6.32c5.29,16.35,39.9,35.57,37.59,51.65-1.23,8.56-7.15,13.59-16.14,11.27-9.17-2.36-51.67-45.87-64.88-56.07-38.69-29.88-82.96-48.84-121.56-75.46-42.34-29.2-18.53-31.23-16.2-69.7.93-15.39-3.39-27.88-3.11-42.83,37.05,8.46,5.97,55.55,20.79,79.27,9.54,15.27,57.98,35.72,74.64,30.57,20.08-6.19,19.66-49.09,38.14-63.66,16.41-12.94,40.74-13.67,60.23-16-29.12-20.51-56.39,3.72-85.77,4.77,6.13,16.55.24,30.16-19.21,23.97-2.95-.94-49.17-30.07-50.9-32.54-9.28-13.25,12.78-16.99,12.9-29.56-29.45,1.02-83.77-3.06-52.47-44.56,14.45-19.16,36.87-20,55.8-30,14.1-7.45,72.54-50.96,80.27-49,13.1,3.31,21.99,53.32,31.34,67.4,13.09,19.7,37.66,32.78,61.41,30.76,22.86-1.95,45.28-28.48,65.16-14.25.28,17.85-43.54,57.24-44.63,66.77-1.47,12.97,17.32,14.69,26.99,14.26,39.19-1.73,134.64-72.87,168.44-98.73,18.09-13.84,64.31-62.27,39.13,1-26.94,67.67-127.93,130.52-175.3,183.77-25.18,28.31-18.9,74.1-54.32,98.18-18.14,12.33-34.09-11.24-36.47-28.46ZM520.07,590.24l-1.89,9.46c11.34,3.55,25.77,27.35,36.72,14.23,1.32-6.76-25.13-29.08-34.83-23.69Z"/>
  </g>
</svg>