<?xml version="1.0" encoding="UTF-8"?>
<svg id="Layer_1" data-name="Layer 1" xmlns="http://www.w3.org/2000/svg" viewBox="0 0 1024 1024">
  <defs>
    <style>
      .cls-1 {
        fill: #dc2c01;
      }

      .cls-2 {
        fill: #fff;
      }

      .cls-3 {
        fill: #a42105;
      }

      .cls-4 {
        fill: #fd3c00;
      }

      .cls-5 {
        fill: #fcfafa;
      }

      .cls-6 {
        fill: #fcfbfa;
      }
    </style>
  </defs>
  <rect class="cls-2" x="1.24" y="1.19" width="1021.62" height="1021.62" rx="18.33" ry="18.33"/>
  <g>
    <path class="cls-1" d="M521.87,366.17v508.71l-9.93-3.16-334.84-141.45.65-472.57,344.12,108.47ZM430.85,522.02c.19-45.59-27.66-93.18-70.21-111.19-36.76-15.56-76.67-9.43-85.26,34.88-8.48,43.76,15.31,81.82,46.35,110.01,26.98,24.5,73.63,45.94,70.32,88.96-1.97,25.63-19.36,28.04-40.39,20.75-29.41-10.2-48.17-37.02-46.91-68.42l-37.22-12.64c-1.46,52.52,37.34,105.39,86.63,122.2,77.32,26.38,92.37-50,64.91-104.81-22.81-45.55-65.79-59.59-94.83-94.69-20.28-24.51-20.14-70.63,22.1-60.75,30.61,7.16,44.45,33.72,46.48,63.24l38.04,12.45Z"/>
    <path class="cls-3" d="M521.87,874.88v-508.71l344.12-108.47.65,472.57-334.84,141.45-9.93,3.16ZM812.37,367.43l-32.45,10.84-29.9,223.55-37.25-198.77c-1.88-2.83-25.6,7.35-29.45,9.25l-38.03,233.17-32.41-209.46-35.96,12.65,47.2,281.59,34.91-14.64,38.66-225.98,37.65,192.36,2.65,1.97,30.57-12.49,43.81-304.04Z"/>
    <polygon class="cls-4" points="866 257.7 521.87 366.17 177.75 257.7 516.82 149.79 522.5 149.12 866 257.7"/>
    <path class="cls-6" d="M430.85,522.02l-38.04-12.45c-2.02-29.53-15.87-56.08-46.48-63.24-42.23-9.88-42.38,36.23-22.1,60.75,29.04,35.1,72.02,49.14,94.83,94.69,27.45,54.81,12.41,131.19-64.91,104.81-49.29-16.81-88.08-69.68-86.63-122.2l37.22,12.64c-1.26,31.4,17.5,58.22,46.91,68.42,21.03,7.29,38.42,4.88,40.39-20.75,3.31-43.02-43.34-64.47-70.32-88.96-31.04-28.19-54.83-66.25-46.35-110.01,8.59-44.32,48.5-50.44,85.26-34.88,42.56,18.01,70.4,65.6,70.21,111.19Z"/>
    <path class="cls-5" d="M812.37,367.43l-43.81,304.04-30.57,12.49-2.65-1.97-37.65-192.36-38.66,225.98-34.91,14.64-47.2-281.59,35.96-12.65,32.41,209.46,38.03-233.17c3.85-1.89,27.57-12.07,29.45-9.25l37.25,198.77,29.9-223.55,32.45-10.84Z"/>
  </g>
</svg>