<?xml version="1.0" encoding="UTF-8"?>
<svg xmlns="http://www.w3.org/2000/svg" xmlns:xlink="http://www.w3.org/1999/xlink" viewBox="0 0 1024 1024">
  <defs>
    <style>
      .cls-1, .cls-2 {
        fill: #fff;
      }

      .cls-3 {
        mask: url(#mask);
      }

      .cls-2, .cls-4 {
        fill-rule: evenodd;
      }

      .cls-5 {
        fill: #1f9cf0;
      }

      .cls-6 {
        fill: #0065a9;
      }

      .cls-7 {
        isolation: isolate;
      }

      .cls-8 {
        mix-blend-mode: overlay;
        opacity: .25;
      }

      .cls-9 {
        fill: #007acc;
      }

      .cls-4 {
        fill: url(#linear-gradient);
      }
    </style>
    <mask id="mask" x="151.99" y="149.12" width="729.96" height="725.76" maskUnits="userSpaceOnUse">
      <g id="mask0">
        <path class="cls-2" d="M669.75,871.78c11.49,4.48,24.59,4.19,36.19-1.39l150.19-72.27c15.78-7.59,25.82-23.57,25.82-41.09v-490.04c0-17.52-10.04-33.5-25.82-41.09l-150.2-72.27c-15.22-7.32-33.03-5.53-46.39,4.18-1.91,1.39-3.73,2.94-5.43,4.64l-287.53,262.32-125.24-95.07c-11.66-8.85-27.97-8.12-38.79,1.73l-40.17,36.54c-13.24,12.05-13.26,32.89-.03,44.95l108.61,99.09-108.61,99.09c-13.23,12.07-13.21,32.91.03,44.95l40.17,36.54c10.83,9.85,27.14,10.58,38.79,1.72l125.24-95.07,287.53,262.32c4.55,4.55,9.89,7.98,15.63,10.22ZM699.68,346.39l-218.17,165.61,218.17,165.61v-331.22Z"/>
      </g>
    </mask>
    <linearGradient id="linear-gradient" x1="516.75" y1="-1508.51" x2="516.75" y2="-2234.27" gradientTransform="translate(0 -1359.39) scale(1 -1)" gradientUnits="userSpaceOnUse">
      <stop offset="0" stop-color="#fff"/>
      <stop offset="1" stop-color="#fff" stop-opacity="0"/>
    </linearGradient>
  </defs>
  <g class="cls-7">
    <g id="Layer_1" data-name="Layer 1">
      <rect class="cls-1" x="1.24" y="1.19" width="1021.62" height="1021.62" rx="18.33" ry="18.33"/>
      <g class="cls-3">
        <g>
          <path class="cls-6" d="M856.14,226l-150.31-72.37c-17.4-8.38-38.19-4.84-51.85,8.81l-492.07,448.65c-13.24,12.07-13.22,32.9.03,44.95l40.19,36.54c10.83,9.85,27.15,10.58,38.82,1.73L833.52,244.78c19.88-15.08,48.43-.9,48.43,24.05v-1.75c0-17.52-10.03-33.48-25.81-41.08Z"/>
          <path class="cls-9" d="M856.14,798l-150.31,72.37c-17.4,8.38-38.19,4.84-51.85-8.81L161.91,412.91c-13.24-12.07-13.22-32.91.03-44.95l40.19-36.54c10.83-9.85,27.15-10.58,38.82-1.73l592.56,449.53c19.88,15.08,48.43.9,48.43-24.05v1.75c0,17.51-10.03,33.48-25.81,41.08Z"/>
          <path class="cls-5" d="M705.83,870.38c-17.4,8.37-38.2,4.83-51.85-8.82,16.83,16.83,45.59,4.91,45.59-18.89V181.33c0-23.79-28.77-35.71-45.59-18.89,13.66-13.66,34.45-17.19,51.85-8.82l150.29,72.27c15.79,7.59,25.83,23.57,25.83,41.09v490.04c0,17.52-10.04,33.5-25.84,41.09l-150.29,72.27Z"/>
          <g class="cls-8">
            <path class="cls-4" d="M669.31,871.78c11.49,4.48,24.59,4.19,36.19-1.39l150.19-72.27c15.78-7.59,25.82-23.57,25.82-41.09v-490.04c0-17.52-10.04-33.5-25.82-41.09l-150.2-72.27c-15.22-7.32-33.03-5.53-46.39,4.18-1.91,1.39-3.73,2.94-5.43,4.64l-287.53,262.32-125.24-95.07c-11.66-8.85-27.97-8.12-38.79,1.72l-40.17,36.54c-13.24,12.05-13.26,32.89-.03,44.95l108.61,99.09-108.61,99.09c-13.23,12.07-13.21,32.9.03,44.95l40.17,36.54c10.83,9.85,27.14,10.58,38.79,1.73l125.24-95.07,287.53,262.32c4.55,4.55,9.89,7.98,15.63,10.22ZM699.24,346.39l-218.17,165.61,218.17,165.61v-331.22Z"/>
          </g>
        </g>
      </g>
    </g>
  </g>
</svg>