<?xml version="1.0" encoding="UTF-8"?>
<svg id="Layer_1" data-name="Layer 1" xmlns="http://www.w3.org/2000/svg" viewBox="0 0 1024 1024">
  <defs>
    <style>
      .cls-1 {
        fill: #470137;
      }

      .cls-2 {
        fill: #ee6df0;
      }
    </style>
  </defs>
  <rect class="cls-1" width="1024" height="1024" rx="18.33" ry="18.33"/>
  <g>
    <path class="cls-2" d="M397.75,520.88l147.56,252.64c2.32,3.86.77,6.95-3.09,7.73h-90.39c-6.18,0-8.5-1.55-10.81-6.19-34.77-62.58-69.54-125.15-105.08-191.6h-.77c-32.45,64.13-67.22,129.79-100.44,192.37-2.31,3.86-5.41,5.41-9.27,5.41h-86.53c-4.64,0-4.64-3.86-3.09-7.73l143.7-244.92-139.84-244.91c-2.31-3.86,0-6.95,3.86-6.95h89.62c4.64,0,6.95.76,8.5,5.4,32.45,63.35,67.99,125.16,100.44,188.52h.77c30.91-63.35,65.67-125.16,98.12-188.52,2.31-3.09,3.86-5.4,9.27-5.4h82.67c4.63,0,5.4,3.09,3.09,6.95l-138.3,237.18Z"/>
    <path class="cls-2" d="M559.18,594.28c0-112.03,79.58-200.87,208.6-200.87,10.05,0,17.77,0,29.36,1.54v-154.52c0-3.09,1.54-4.64,4.63-4.64h81.12c3.09,0,3.86,1.55,3.86,3.86v465.1c0,14.68.77,32.45,2.32,48.68,0,3.09-.77,4.63-3.86,6.18-46.36,20.86-92.71,28.59-135.98,28.59-108.93,0-190.06-64.13-190.06-193.92ZM797.15,473.76c-8.5-3.09-19.31-4.64-32.45-4.64-64.9,0-113.57,44.81-113.57,120.53,0,85.76,47.9,120.53,105.84,120.53,13.91,0,28.59-.77,40.18-5.41v-231Z"/>
  </g>
</svg>